<?xml version="1.0" encoding="UTF-8" ?>
<!DOCTYPE svg PUBLIC "-//W3C//DTD SVG 1.1//EN" "http://www.w3.org/Graphics/SVG/1.1/DTD/svg11.dtd">
<svg width="664pt" height="664pt" viewBox="0 0 664 664" version="1.1" xmlns="http://www.w3.org/2000/svg">
<g id="#5ad7c9ff">
<path fill="#5ad7c9" opacity="1.00" d=" M 290.11 77.49 C 290.24 77.43 290.50 77.31 290.63 77.25 C 290.50 77.31 290.24 77.43 290.11 77.49 Z" />
<path fill="#5ad7c9" opacity="1.00" d=" M 287.26 78.47 C 287.32 78.42 287.43 78.33 287.49 78.29 C 287.43 78.33 287.32 78.42 287.26 78.47 Z" />
<path fill="#5ad7c9" opacity="1.00" d=" M 300.49 78.36 C 300.54 78.39 300.65 78.44 300.70 78.46 C 300.65 78.44 300.54 78.39 300.49 78.36 Z" />
<path fill="#5ad7c9" opacity="1.00" d=" M 277.35 90.55 C 277.38 90.50 277.45 90.39 277.49 90.34 C 277.45 90.39 277.38 90.50 277.35 90.55 Z" />
<path fill="#5ad7c9" opacity="1.00" d=" M 310.52 90.34 C 310.55 90.39 310.62 90.50 310.66 90.55 C 310.62 90.50 310.55 90.39 310.52 90.34 Z" />
<path fill="#5ad7c9" opacity="1.00" d=" M 274.34 95.52 C 274.38 95.47 274.45 95.37 274.48 95.32 C 274.45 95.37 274.38 95.47 274.34 95.52 Z" />
<path fill="#5ad7c9" opacity="1.00" d=" M 313.43 95.27 C 313.48 95.37 313.59 95.56 313.65 95.65 L 313.54 95.46 L 313.43 95.27 Z" />
<path fill="#5ad7c9" opacity="1.00" d=" M 314.56 97.28 C 314.60 97.35 314.67 97.48 314.71 97.55 C 314.67 97.48 314.60 97.35 314.56 97.28 Z" />
<path fill="#5ad7c9" opacity="1.00" d=" M 270.35 102.53 C 270.38 102.48 270.44 102.39 270.47 102.35 C 270.44 102.39 270.38 102.48 270.35 102.53 Z" />
<path fill="#5ad7c9" opacity="1.00" d=" M 317.52 102.34 C 317.56 102.41 317.64 102.53 317.68 102.59 C 317.64 102.53 317.56 102.41 317.52 102.34 Z" />
<path fill="#5ad7c9" opacity="1.00" d=" M 267.35 107.53 C 267.38 107.48 267.44 107.39 267.46 107.35 C 267.44 107.39 267.38 107.48 267.35 107.53 Z" />
<path fill="#5ad7c9" opacity="1.00" d=" M 320.53 107.32 C 320.57 107.38 320.65 107.50 320.68 107.56 C 320.65 107.50 320.57 107.38 320.53 107.32 Z" />
<path fill="#5ad7c9" opacity="1.00" d=" M 264.36 112.65 C 264.41 112.56 264.52 112.37 264.57 112.28 L 264.47 112.46 L 264.36 112.65 Z" />
<path fill="#5ad7c9" opacity="1.00" d=" M 323.47 112.27 C 323.52 112.36 323.62 112.53 323.67 112.62 L 323.57 112.43 L 323.47 112.27 Z" />
<path fill="#5ad7c9" opacity="1.00" d=" M 263.29 114.53 C 263.33 114.47 263.40 114.35 263.43 114.29 C 263.40 114.35 263.33 114.47 263.29 114.53 Z" />
<path fill="#5ad7c9" opacity="1.00" d=" M 324.55 114.26 C 324.59 114.34 324.67 114.49 324.72 114.56 C 324.67 114.49 324.59 114.34 324.55 114.26 Z" />
<path fill="#5ad7c9" opacity="1.00" d=" M 260.33 119.59 C 260.37 119.52 260.46 119.38 260.50 119.31 C 260.46 119.38 260.37 119.52 260.33 119.59 Z" />
<path fill="#5ad7c9" opacity="1.00" d=" M 327.49 119.32 C 327.54 119.39 327.63 119.54 327.67 119.61 C 327.63 119.54 327.54 119.39 327.49 119.32 Z" />
<path fill="#5ad7c9" opacity="1.00" d=" M 257.34 124.53 C 257.37 124.48 257.43 124.39 257.46 124.35 C 257.43 124.39 257.37 124.48 257.34 124.53 Z" />
<path fill="#5ad7c9" opacity="1.00" d=" M 330.44 124.27 C 330.49 124.36 330.60 124.55 330.65 124.64 L 330.54 124.46 L 330.44 124.27 Z" />
<path fill="#5ad7c9" opacity="1.00" d=" M 331.56 126.27 C 331.60 126.35 331.68 126.50 331.72 126.57 C 331.68 126.50 331.60 126.35 331.56 126.27 Z" />
<path fill="#5ad7c9" opacity="1.00" d=" M 253.34 131.60 C 253.38 131.54 253.45 131.41 253.49 131.34 C 253.45 131.41 253.38 131.54 253.34 131.60 Z" />
<path fill="#5ad7c9" opacity="1.00" d=" M 334.52 131.33 C 334.55 131.39 334.63 131.51 334.66 131.57 C 334.63 131.51 334.55 131.39 334.52 131.33 Z" />
<path fill="#5ad7c9" opacity="1.00" d=" M 250.27 136.55 C 250.32 136.48 250.42 136.34 250.47 136.28 C 250.42 136.34 250.32 136.48 250.27 136.55 Z" />
<path fill="#5ad7c9" opacity="1.00" d=" M 337.52 136.34 C 337.55 136.39 337.61 136.49 337.64 136.54 C 337.61 136.49 337.55 136.39 337.52 136.34 Z" />
<path fill="#5ad7c9" opacity="1.00" d=" M 249.31 138.55 C 249.35 138.48 249.41 138.35 249.44 138.29 C 249.41 138.35 249.35 138.48 249.31 138.55 Z" />
<path fill="#5ad7c9" opacity="1.00" d=" M 340.43 141.27 C 340.48 141.37 340.59 141.56 340.65 141.65 L 340.53 141.46 L 340.43 141.27 Z" />
<path fill="#5ad7c9" opacity="1.00" d=" M 246.33 143.50 C 246.35 143.46 246.41 143.38 246.43 143.34 C 246.41 143.38 246.35 143.46 246.33 143.50 Z" />
<path fill="#5ad7c9" opacity="1.00" d=" M 341.56 143.27 C 341.60 143.34 341.68 143.48 341.72 143.55 C 341.68 143.48 341.60 143.34 341.56 143.27 Z" />
<path fill="#5ad7c9" opacity="1.00" d=" M 344.55 148.34 C 344.58 148.39 344.65 148.49 344.68 148.54 C 344.65 148.49 344.58 148.39 344.55 148.34 Z" />
<path fill="#5ad7c9" opacity="1.00" d=" M 242.35 150.55 C 242.38 150.50 242.45 150.39 242.48 150.34 C 242.45 150.39 242.38 150.50 242.35 150.55 Z" />
<path fill="#5ad7c9" opacity="1.00" d=" M 347.53 153.35 C 347.56 153.40 347.62 153.49 347.65 153.53 C 347.62 153.49 347.56 153.40 347.53 153.35 Z" />
<path fill="#5ad7c9" opacity="1.00" d=" M 239.35 155.64 C 239.40 155.55 239.51 155.36 239.56 155.27 L 239.46 155.46 L 239.35 155.64 Z" />
<path fill="#5ad7c9" opacity="1.00" d=" M 238.27 157.56 C 238.31 157.49 238.39 157.34 238.42 157.27 C 238.39 157.34 238.31 157.49 238.27 157.56 Z" />
<path fill="#5ad7c9" opacity="1.00" d=" M 350.43 158.27 C 350.48 158.37 350.59 158.56 350.64 158.65 L 350.53 158.46 L 350.43 158.27 Z" />
<path fill="#5ad7c9" opacity="1.00" d=" M 351.57 160.29 C 351.60 160.35 351.67 160.48 351.71 160.55 C 351.67 160.48 351.60 160.35 351.57 160.29 Z" />
<path fill="#5ad7c9" opacity="1.00" d=" M 235.33 162.51 C 235.36 162.47 235.41 162.39 235.44 162.35 C 235.41 162.39 235.36 162.47 235.33 162.51 Z" />
<path fill="#5ad7c9" opacity="1.00" d=" M 354.55 165.35 C 354.58 165.40 354.64 165.49 354.67 165.54 C 354.64 165.49 354.58 165.40 354.55 165.35 Z" />
<path fill="#5ad7c9" opacity="1.00" d=" M 232.33 167.62 C 232.38 167.53 232.49 167.36 232.54 167.28 L 232.43 167.44 L 232.33 167.62 Z" />
<path fill="#5ad7c9" opacity="1.00" d=" M 231.27 169.56 C 231.31 169.48 231.39 169.34 231.43 169.27 C 231.39 169.34 231.31 169.48 231.27 169.56 Z" />
<path fill="#5ad7c9" opacity="1.00" d=" M 357.53 170.34 C 357.56 170.39 357.63 170.50 357.67 170.55 C 357.63 170.50 357.56 170.39 357.53 170.34 Z" />
<path fill="#5ad7c9" opacity="1.00" d=" M 228.24 174.54 C 228.29 174.47 228.40 174.33 228.45 174.26 C 228.40 174.33 228.29 174.47 228.24 174.54 Z" />
<path fill="#5ad7c9" opacity="1.00" d=" M 360.44 175.28 C 360.49 175.37 360.60 175.55 360.65 175.64 L 360.54 175.46 L 360.44 175.28 Z" />
<path fill="#5ad7c9" opacity="1.00" d=" M 227.32 176.57 C 227.36 176.50 227.43 176.36 227.47 176.28 C 227.43 176.36 227.36 176.50 227.32 176.57 Z" />
<path fill="#5ad7c9" opacity="1.00" d=" M 361.57 177.28 C 361.61 177.35 361.68 177.49 361.72 177.56 C 361.68 177.49 361.61 177.35 361.57 177.28 Z" />
<path fill="#5ad7c9" opacity="1.00" d=" M 224.33 181.58 C 224.37 181.52 224.44 181.40 224.47 181.34 C 224.44 181.40 224.37 181.52 224.33 181.58 Z" />
<path fill="#5ad7c9" opacity="1.00" d=" M 364.52 182.35 C 364.55 182.40 364.62 182.52 364.66 182.58 C 364.62 182.52 364.55 182.40 364.52 182.35 Z" />
<path fill="#5ad7c9" opacity="1.00" d=" M 221.34 186.53 C 221.37 186.48 221.43 186.38 221.47 186.33 C 221.43 186.38 221.37 186.48 221.34 186.53 Z" />
<path fill="#5ad7c9" opacity="1.00" d=" M 367.54 187.35 C 367.58 187.40 367.64 187.51 367.68 187.56 C 367.64 187.51 367.58 187.40 367.54 187.35 Z" />
<path fill="#5ad7c9" opacity="1.00" d=" M 370.54 192.33 C 370.58 192.39 370.65 192.50 370.69 192.55 C 370.65 192.50 370.58 192.39 370.54 192.33 Z" />
<path fill="#5ad7c9" opacity="1.00" d=" M 217.33 193.54 C 217.36 193.49 217.42 193.39 217.46 193.34 C 217.42 193.39 217.36 193.49 217.33 193.54 Z" />
<path fill="#5ad7c9" opacity="1.00" d=" M 373.54 197.36 C 373.57 197.40 373.63 197.49 373.66 197.54 C 373.63 197.49 373.57 197.40 373.54 197.36 Z" />
<path fill="#5ad7c9" opacity="1.00" d=" M 643.43 198.03 C 646.98 197.92 650.73 198.62 653.98 196.76 C 653.99 213.15 653.90 229.55 654.03 245.94 C 654.26 246.31 654.73 247.06 654.96 247.43 C 655.06 261.96 654.97 276.49 655.00 291.03 C 654.36 291.01 653.06 290.97 652.42 290.95 C 651.43 289.43 649.47 290.13 648.02 289.95 C 630.68 290.04 613.33 289.88 596.00 290.03 C 595.65 290.26 594.94 290.73 594.59 290.96 C 584.08 291.11 573.56 290.84 563.05 291.03 C 562.68 291.26 561.95 291.73 561.58 291.96 C 554.54 292.20 547.46 291.66 540.45 292.15 L 539.59 292.97 C 533.22 293.20 526.80 292.64 520.46 293.16 L 519.57 293.96 C 514.20 294.20 508.79 293.64 503.45 294.16 L 502.57 294.96 C 497.87 295.20 493.13 294.63 488.46 295.16 L 487.57 295.96 C 483.20 296.20 478.79 295.62 474.46 296.17 L 473.56 296.96 C 469.65 297.60 464.94 295.71 461.55 297.95 C 457.99 298.58 453.59 296.73 450.57 298.96 C 446.67 299.61 441.93 297.71 438.57 299.97 C 436.97 299.88 435.16 300.40 433.74 299.46 C 432.86 297.70 431.66 296.15 430.74 294.43 C 429.90 292.65 428.65 291.13 427.69 289.44 C 426.72 286.90 425.08 284.75 423.74 282.43 C 422.95 280.63 421.59 279.17 420.74 277.42 C 419.93 275.64 418.59 274.17 417.74 272.42 C 416.91 270.64 415.63 269.14 414.68 267.44 C 413.72 264.90 412.08 262.75 410.74 260.43 C 409.94 258.63 408.59 257.18 407.74 255.43 C 406.13 252.56 404.58 249.41 401.54 247.80 L 402.16 246.76 C 402.88 247.39 403.64 247.99 404.43 248.56 L 403.91 247.06 C 405.64 247.40 407.16 247.09 408.45 246.13 C 409.84 246.04 411.38 246.25 412.47 245.15 C 413.85 245.05 415.37 245.22 416.47 244.15 C 417.85 244.04 419.38 244.24 420.46 243.15 C 421.84 243.04 423.37 243.23 424.47 242.15 C 425.85 242.04 427.37 242.22 428.48 241.16 C 429.85 241.03 431.38 241.22 432.48 240.16 C 433.85 240.03 435.38 240.22 436.47 239.16 C 437.85 239.03 439.40 239.23 440.48 238.13 C 441.00 238.08 442.02 237.97 442.54 237.92 C 443.98 236.02 446.92 237.94 448.46 236.14 C 449.83 236.02 451.40 236.28 452.45 235.13 C 453.83 235.03 455.39 235.28 456.45 234.13 C 457.83 234.03 459.39 234.29 460.45 233.13 C 461.79 232.96 463.46 233.37 464.42 232.08 C 466.10 231.87 468.14 232.55 469.47 231.13 C 470.85 231.06 472.37 231.22 473.46 230.15 C 474.81 229.98 476.44 230.31 477.44 229.10 C 479.11 228.89 481.13 229.52 482.46 228.14 C 483.83 228.02 485.42 228.29 486.45 227.10 C 488.11 226.88 490.14 227.53 491.45 226.14 C 492.82 226.01 494.43 226.32 495.45 225.10 C 497.15 224.95 499.10 225.48 500.48 224.15 C 501.84 224.01 503.43 224.29 504.45 223.10 C 506.11 222.86 508.18 223.58 509.44 222.09 C 511.12 221.90 513.12 222.52 514.46 221.14 C 515.82 220.99 517.45 221.33 518.44 220.09 C 520.10 219.85 522.19 220.60 523.44 219.09 C 525.11 218.86 527.18 219.58 528.46 218.10 C 530.12 217.89 532.17 218.56 533.46 217.10 C 535.12 216.87 537.18 217.56 538.46 216.10 C 540.12 215.88 542.17 216.54 543.46 215.10 C 545.12 214.86 547.19 215.58 548.45 214.10 C 550.12 213.88 552.17 214.56 553.47 213.10 C 555.12 212.87 557.18 213.56 558.45 212.09 C 560.10 211.85 562.21 212.61 563.42 211.08 C 565.09 210.86 567.18 211.58 568.45 210.09 C 570.10 209.85 572.23 210.63 573.43 209.06 C 575.42 208.79 577.87 209.73 579.47 208.10 C 581.14 207.90 583.17 208.54 584.46 207.10 C 586.11 206.85 588.22 207.61 589.44 206.07 C 591.43 205.79 593.87 206.74 595.47 205.10 C 597.11 204.84 599.23 205.62 600.43 204.06 C 602.39 203.74 604.97 204.83 606.42 203.04 C 608.69 202.64 611.70 203.99 613.41 202.03 C 616.03 201.63 619.32 203.00 621.47 201.06 C 623.74 200.69 626.66 201.92 628.45 200.04 C 631.05 199.62 634.34 201.01 636.46 199.05 C 638.73 198.67 641.68 199.95 643.43 198.03 Z" />
<path fill="#5ad7c9" opacity="1.00" d=" M 214.33 198.60 C 214.38 198.52 214.48 198.36 214.52 198.28 L 214.42 198.43 L 214.33 198.60 Z" />
<path fill="#5ad7c9" opacity="1.00" d=" M 213.29 200.53 C 213.33 200.47 213.39 200.34 213.43 200.28 C 213.39 200.34 213.33 200.47 213.29 200.53 Z" />
<path fill="#5ad7c9" opacity="1.00" d=" M 377.53 204.34 C 377.56 204.39 377.62 204.48 377.65 204.53 C 377.62 204.48 377.56 204.39 377.53 204.34 Z" />
<path fill="#5ad7c9" opacity="1.00" d=" M 210.33 205.58 C 210.36 205.52 210.44 205.40 210.48 205.34 C 210.44 205.40 210.36 205.52 210.33 205.58 Z" />
<path fill="#5ad7c9" opacity="1.00" d=" M 380.46 209.27 C 380.51 209.36 380.62 209.53 380.67 209.62 L 380.57 209.43 L 380.46 209.27 Z" />
<path fill="#5ad7c9" opacity="1.00" d=" M 207.33 210.51 C 207.37 210.47 207.43 210.37 207.46 210.33 C 207.43 210.37 207.37 210.47 207.33 210.51 Z" />
<path fill="#5ad7c9" opacity="1.00" d=" M 381.55 211.26 C 381.59 211.34 381.67 211.49 381.71 211.57 C 381.67 211.49 381.59 211.34 381.55 211.26 Z" />
<path fill="#5ad7c9" opacity="1.00" d=" M 384.52 216.33 C 384.55 216.38 384.62 216.49 384.65 216.55 C 384.62 216.49 384.55 216.38 384.52 216.33 Z" />
<path fill="#5ad7c9" opacity="1.00" d=" M 203.32 217.58 C 203.36 217.52 203.43 217.40 203.47 217.34 C 203.43 217.40 203.36 217.52 203.32 217.58 Z" />
<path fill="#5ad7c9" opacity="1.00" d=" M 387.51 221.32 C 387.55 221.39 387.63 221.53 387.68 221.60 C 387.63 221.53 387.55 221.39 387.51 221.32 Z" />
<path fill="#5ad7c9" opacity="1.00" d=" M 200.34 222.62 C 200.39 222.53 200.49 222.36 200.54 222.28 L 200.44 222.44 L 200.34 222.62 Z" />
<path fill="#5ad7c9" opacity="1.00" d=" M 199.29 224.54 C 199.32 224.47 199.39 224.35 199.42 224.29 C 199.39 224.35 199.32 224.47 199.29 224.54 Z" />
<path fill="#5ad7c9" opacity="1.00" d=" M 390.47 226.27 C 390.52 226.36 390.62 226.53 390.67 226.61 L 390.57 226.43 L 390.47 226.27 Z" />
<path fill="#5ad7c9" opacity="1.00" d=" M 391.57 228.27 C 391.60 228.34 391.67 228.47 391.71 228.54 C 391.67 228.47 391.60 228.34 391.57 228.27 Z" />
<path fill="#5ad7c9" opacity="1.00" d=" M 196.33 229.58 C 196.36 229.52 196.44 229.40 196.48 229.34 C 196.44 229.40 196.36 229.52 196.33 229.58 Z" />
<path fill="#5ad7c9" opacity="1.00" d=" M 394.52 233.34 C 394.56 233.40 394.64 233.52 394.68 233.58 C 394.64 233.52 394.56 233.40 394.52 233.34 Z" />
<path fill="#5ad7c9" opacity="1.00" d=" M 193.35 234.53 C 193.38 234.49 193.43 234.40 193.46 234.36 C 193.43 234.40 193.38 234.49 193.35 234.53 Z" />
<path fill="#5ad7c9" opacity="1.00" d=" M 397.53 238.32 C 397.57 238.38 397.65 238.51 397.69 238.57 C 397.65 238.51 397.57 238.38 397.53 238.32 Z" />
<path fill="#5ad7c9" opacity="1.00" d=" M 190.36 239.65 C 190.41 239.56 190.52 239.37 190.57 239.28 L 190.47 239.46 L 190.36 239.65 Z" />
<path fill="#5ad7c9" opacity="1.00" d=" M 189.30 241.53 C 189.33 241.47 189.40 241.34 189.44 241.28 C 189.40 241.34 189.33 241.47 189.30 241.53 Z" />
<path fill="#5ad7c9" opacity="1.00" d=" M 400.53 243.31 C 400.57 243.37 400.66 243.49 400.70 243.55 C 400.66 243.49 400.57 243.37 400.53 243.31 Z" />
<path fill="#5ad7c9" opacity="1.00" d=" M 186.35 246.53 C 186.38 246.48 186.45 246.38 186.48 246.32 C 186.45 246.38 186.38 246.48 186.35 246.53 Z" />
<path fill="#5ad7c9" opacity="1.00" d=" M 399.46 248.71 C 399.56 248.67 399.75 248.59 399.85 248.54 C 399.75 248.59 399.56 248.67 399.46 248.71 Z" />
<path fill="#5ad7c9" opacity="1.00" d=" M 395.36 249.72 C 395.50 249.65 395.78 249.52 395.91 249.46 C 395.78 249.52 395.50 249.65 395.36 249.72 Z" />
<path fill="#5ad7c9" opacity="1.00" d=" M 388.38 251.69 C 388.51 251.65 388.77 251.57 388.90 251.53 C 388.77 251.57 388.51 251.65 388.38 251.69 Z" />
<path fill="#5ad7c9" opacity="1.00" d=" M 182.32 253.55 C 182.35 253.50 182.42 253.39 182.45 253.34 C 182.42 253.39 182.35 253.50 182.32 253.55 Z" />
<path fill="#5ad7c9" opacity="1.00" d=" M 381.42 253.64 C 381.53 253.61 381.76 253.55 381.87 253.51 C 381.76 253.55 381.53 253.61 381.42 253.64 Z" />
<path fill="#5ad7c9" opacity="1.00" d=" M 377.40 254.60 C 377.52 254.57 377.75 254.50 377.87 254.47 C 377.75 254.50 377.52 254.57 377.40 254.60 Z" />
<path fill="#5ad7c9" opacity="1.00" d=" M 374.40 255.69 C 374.52 255.65 374.75 255.56 374.87 255.51 C 374.75 255.56 374.52 255.65 374.40 255.69 Z" />
<path fill="#5ad7c9" opacity="1.00" d=" M 367.42 257.62 C 367.54 257.59 367.77 257.53 367.88 257.50 C 367.77 257.53 367.54 257.59 367.42 257.62 Z" />
<path fill="#5ad7c9" opacity="1.00" d=" M 179.34 258.51 C 179.36 258.47 179.42 258.39 179.45 258.35 C 179.42 258.39 179.36 258.47 179.34 258.51 Z" />
<path fill="#5ad7c9" opacity="1.00" d=" M 364.43 258.64 C 364.53 258.60 364.73 258.53 364.83 258.50 C 364.73 258.53 364.53 258.60 364.43 258.64 Z" />
<path fill="#5ad7c9" opacity="1.00" d=" M 360.40 259.61 C 360.51 259.58 360.75 259.51 360.87 259.48 C 360.75 259.51 360.51 259.58 360.40 259.61 Z" />
<path fill="#5ad7c9" opacity="1.00" d=" M 357.42 260.63 C 357.53 260.59 357.74 260.52 357.85 260.48 C 357.74 260.52 357.53 260.59 357.42 260.63 Z" />
<path fill="#5ad7c9" opacity="1.00" d=" M 354.42 261.64 C 354.52 261.60 354.72 261.53 354.82 261.50 C 354.72 261.53 354.52 261.60 354.42 261.64 Z" />
<path fill="#5ad7c9" opacity="1.00" d=" M 350.41 262.60 C 350.53 262.57 350.77 262.50 350.88 262.47 C 350.77 262.50 350.53 262.57 350.41 262.60 Z" />
<path fill="#5ad7c9" opacity="1.00" d=" M 347.40 263.69 C 347.52 263.65 347.75 263.56 347.86 263.51 C 347.75 263.56 347.52 263.65 347.40 263.69 Z" />
<path fill="#5ad7c9" opacity="1.00" d=" M 175.32 265.58 C 175.36 265.51 175.44 265.39 175.48 265.33 C 175.44 265.39 175.36 265.51 175.32 265.58 Z" />
<path fill="#5ad7c9" opacity="1.00" d=" M 337.41 266.63 C 337.53 266.60 337.76 266.53 337.88 266.50 C 337.76 266.53 337.53 266.60 337.41 266.63 Z" />
<path fill="#5ad7c9" opacity="1.00" d=" M 334.41 267.62 C 334.52 267.58 334.73 267.51 334.84 267.47 C 334.73 267.51 334.52 267.58 334.41 267.62 Z" />
<path fill="#5ad7c9" opacity="1.00" d=" M 331.38 268.69 C 331.49 268.64 331.73 268.55 331.84 268.51 C 331.73 268.55 331.49 268.64 331.38 268.69 Z" />
<path fill="#5ad7c9" opacity="1.00" d=" M 172.33 270.61 C 172.38 270.53 172.48 270.36 172.53 270.28 L 172.43 270.43 L 172.33 270.61 Z" />
<path fill="#5ad7c9" opacity="1.00" d=" M 324.42 270.63 C 324.53 270.60 324.76 270.54 324.88 270.51 C 324.76 270.54 324.53 270.60 324.42 270.63 Z" />
<path fill="#5ad7c9" opacity="1.00" d=" M 321.43 271.63 C 321.54 271.60 321.74 271.52 321.85 271.48 C 321.74 271.52 321.54 271.60 321.43 271.63 Z" />
<path fill="#5ad7c9" opacity="1.00" d=" M 171.28 272.57 C 171.32 272.49 171.40 272.34 171.44 272.27 C 171.40 272.34 171.32 272.49 171.28 272.57 Z" />
<path fill="#5ad7c9" opacity="1.00" d=" M 318.41 272.62 C 318.51 272.58 318.73 272.51 318.83 272.47 C 318.73 272.51 318.51 272.58 318.41 272.62 Z" />
<path fill="#5ad7c9" opacity="1.00" d=" M 315.37 273.69 C 315.49 273.64 315.72 273.56 315.84 273.51 C 315.72 273.56 315.49 273.64 315.37 273.69 Z" />
<path fill="#5ad7c9" opacity="1.00" d=" M 168.35 277.51 C 168.38 277.47 168.44 277.38 168.47 277.33 C 168.44 277.38 168.38 277.47 168.35 277.51 Z" />
<path fill="#5ad7c9" opacity="1.00" d=" M 302.40 277.63 C 302.52 277.60 302.75 277.54 302.86 277.51 C 302.75 277.54 302.52 277.60 302.40 277.63 Z" />
<path fill="#5ad7c9" opacity="1.00" d=" M 299.42 278.63 C 299.53 278.59 299.74 278.52 299.84 278.48 C 299.74 278.52 299.53 278.59 299.42 278.63 Z" />
<path fill="#5ad7c9" opacity="1.00" d=" M 296.42 279.63 C 296.52 279.59 296.73 279.52 296.84 279.48 C 296.73 279.52 296.52 279.59 296.42 279.63 Z" />
<path fill="#5ad7c9" opacity="1.00" d=" M 293.41 280.63 C 293.51 280.59 293.73 280.52 293.83 280.48 C 293.73 280.52 293.51 280.59 293.41 280.63 Z" />
<path fill="#5ad7c9" opacity="1.00" d=" M 290.40 281.63 C 290.51 281.59 290.72 281.52 290.83 281.48 C 290.72 281.52 290.51 281.59 290.40 281.63 Z" />
<path fill="#5ad7c9" opacity="1.00" d=" M 287.40 282.63 C 287.51 282.59 287.72 282.52 287.83 282.48 C 287.72 282.52 287.51 282.59 287.40 282.63 Z" />
<path fill="#5ad7c9" opacity="1.00" d=" M 284.42 283.63 C 284.52 283.59 284.74 283.52 284.84 283.48 C 284.74 283.52 284.52 283.59 284.42 283.63 Z" />
<path fill="#5ad7c9" opacity="1.00" d=" M 164.34 284.52 C 164.37 284.48 164.43 284.38 164.46 284.33 C 164.43 284.38 164.37 284.48 164.34 284.52 Z" />
<path fill="#5ad7c9" opacity="1.00" d=" M 281.41 284.63 C 281.52 284.59 281.73 284.52 281.83 284.48 C 281.73 284.52 281.52 284.59 281.41 284.63 Z" />
<path fill="#5ad7c9" opacity="1.00" d=" M 278.42 285.63 C 278.52 285.59 278.74 285.52 278.84 285.48 C 278.74 285.52 278.52 285.59 278.42 285.63 Z" />
<path fill="#5ad7c9" opacity="1.00" d=" M 275.42 286.63 C 275.52 286.59 275.73 286.52 275.84 286.48 C 275.73 286.52 275.52 286.59 275.42 286.63 Z" />
<path fill="#5ad7c9" opacity="1.00" d=" M 272.41 287.63 C 272.52 287.59 272.73 287.52 272.84 287.48 C 272.73 287.52 272.52 287.59 272.41 287.63 Z" />
<path fill="#5ad7c9" opacity="1.00" d=" M 269.40 288.63 C 269.51 288.59 269.72 288.51 269.83 288.48 C 269.72 288.51 269.51 288.59 269.40 288.63 Z" />
<path fill="#5ad7c9" opacity="1.00" d=" M 161.35 289.64 C 161.40 289.55 161.51 289.37 161.57 289.28 L 161.46 289.46 L 161.35 289.64 Z" />
<path fill="#5ad7c9" opacity="1.00" d=" M 266.42 289.63 C 266.52 289.59 266.73 289.52 266.83 289.48 C 266.73 289.52 266.52 289.59 266.42 289.63 Z" />
<path fill="#5ad7c9" opacity="1.00" d=" M 263.45 290.63 C 263.54 290.60 263.74 290.53 263.84 290.50 C 263.74 290.53 263.54 290.60 263.45 290.63 Z" />
<path fill="#5ad7c9" opacity="1.00" d=" M 160.28 291.56 C 160.32 291.48 160.40 291.34 160.44 291.27 C 160.40 291.34 160.32 291.48 160.28 291.56 Z" />
<path fill="#5ad7c9" opacity="1.00" d=" M 260.44 291.62 C 260.54 291.59 260.75 291.52 260.85 291.49 C 260.75 291.52 260.54 291.59 260.44 291.62 Z" />
<path fill="#5ad7c9" opacity="1.00" d=" M 157.32 296.57 C 157.36 296.52 157.44 296.40 157.48 296.34 C 157.44 296.40 157.36 296.52 157.32 296.57 Z" />
<path fill="#5ad7c9" opacity="1.00" d=" M 240.44 298.70 C 240.53 298.65 240.71 298.56 240.81 298.52 C 240.71 298.56 240.53 298.65 240.44 298.70 Z" />
<path fill="#5ad7c9" opacity="1.00" d=" M 237.40 299.62 C 237.51 299.58 237.73 299.51 237.83 299.48 C 237.73 299.51 237.51 299.58 237.40 299.62 Z" />
<path fill="#5ad7c9" opacity="1.00" d=" M 234.41 300.63 C 234.51 300.59 234.73 300.52 234.83 300.48 C 234.73 300.52 234.51 300.59 234.41 300.63 Z" />
<path fill="#5ad7c9" opacity="1.00" d=" M 428.20 300.97 C 428.33 299.19 432.64 299.26 433.39 300.53 C 431.67 300.81 429.94 301.07 428.20 300.97 Z" />
<path fill="#5ad7c9" opacity="1.00" d=" M 154.33 301.55 C 154.36 301.50 154.43 301.39 154.47 301.34 C 154.43 301.39 154.36 301.50 154.33 301.55 Z" />
<path fill="#5ad7c9" opacity="1.00" d=" M 231.42 301.63 C 231.52 301.59 231.73 301.52 231.83 301.49 C 231.73 301.52 231.52 301.59 231.42 301.63 Z" />
<path fill="#5ad7c9" opacity="1.00" d=" M 418.08 302.06 C 418.43 300.47 419.36 300.20 420.88 301.26 C 420.06 301.97 419.12 302.24 418.08 302.06 Z" />
<path fill="#5ad7c9" opacity="1.00" d=" M 434.53 301.33 C 434.58 301.38 434.67 301.47 434.71 301.52 C 434.67 301.47 434.58 301.38 434.53 301.33 Z" />
<path fill="#5ad7c9" opacity="1.00" d=" M 228.43 302.63 C 228.53 302.60 228.74 302.53 228.84 302.49 C 228.74 302.53 228.53 302.60 228.43 302.63 Z" />
<path fill="#5ad7c9" opacity="1.00" d=" M 409.18 303.08 C 408.79 301.25 412.02 301.20 412.87 302.32 C 411.71 302.86 410.47 303.33 409.18 303.08 Z" />
<path fill="#5ad7c9" opacity="1.00" d=" M 225.44 303.64 C 225.54 303.60 225.74 303.54 225.84 303.50 C 225.74 303.54 225.54 303.60 225.44 303.64 Z" />
<path fill="#5ad7c9" opacity="1.00" d=" M 400.15 304.06 C 400.41 302.60 401.29 302.26 402.80 303.05 C 402.23 304.05 401.34 304.38 400.15 304.06 Z" />
<path fill="#5ad7c9" opacity="1.00" d=" M 222.43 304.63 C 222.53 304.59 222.74 304.52 222.84 304.49 C 222.74 304.52 222.53 304.59 222.43 304.63 Z" />
<path fill="#5ad7c9" opacity="1.00" d=" M 391.14 305.07 C 390.81 303.27 393.99 303.20 394.83 304.33 C 393.68 304.87 392.43 305.37 391.14 305.07 Z" />
<path fill="#5ad7c9" opacity="1.00" d=" M 383.09 306.09 C 383.39 304.47 384.32 304.19 385.86 305.26 C 385.04 305.97 384.12 306.24 383.09 306.09 Z" />
<path fill="#5ad7c9" opacity="1.00" d=" M 375.12 306.17 L 376.05 305.70 L 376.85 306.12 C 376.40 306.36 375.48 306.83 375.02 307.07 L 375.12 306.17 Z" />
<path fill="#5ad7c9" opacity="1.00" d=" M 437.54 306.36 C 437.57 306.40 437.63 306.50 437.66 306.55 C 437.63 306.50 437.57 306.40 437.54 306.36 Z" />
<path fill="#5ad7c9" opacity="1.00" d=" M 214.45 307.69 C 214.54 307.65 214.72 307.56 214.81 307.52 C 214.72 307.56 214.54 307.65 214.45 307.69 Z" />
<path fill="#5ad7c9" opacity="1.00" d=" M 150.34 308.60 C 150.38 308.54 150.45 308.42 150.48 308.36 C 150.45 308.42 150.38 308.54 150.34 308.60 Z" />
<path fill="#5ad7c9" opacity="1.00" d=" M 211.42 308.62 C 211.52 308.58 211.74 308.51 211.84 308.48 C 211.74 308.51 211.52 308.58 211.42 308.62 Z" />
<path fill="#5ad7c9" opacity="1.00" d=" M 208.46 309.64 C 208.55 309.60 208.74 309.54 208.84 309.50 C 208.74 309.54 208.55 309.60 208.46 309.64 Z" />
<path fill="#5ad7c9" opacity="1.00" d=" M 352.08 309.43 C 353.28 308.30 354.53 308.28 355.81 309.37 C 354.66 309.87 353.43 310.34 352.16 310.06 L 352.08 309.43 Z" />
<path fill="#5ad7c9" opacity="1.00" d=" M 205.44 310.62 C 205.54 310.59 205.75 310.52 205.85 310.49 C 205.75 310.52 205.54 310.59 205.44 310.62 Z" />
<path fill="#5ad7c9" opacity="1.00" d=" M 346.10 310.14 L 347.05 309.68 L 347.84 310.12 C 347.38 310.35 346.45 310.80 345.99 311.03 L 346.10 310.14 Z" />
<path fill="#5ad7c9" opacity="1.00" d=" M 339.10 312.05 C 339.42 310.45 340.35 310.18 341.88 311.24 C 341.07 311.96 340.14 312.23 339.10 312.05 Z" />
<path fill="#5ad7c9" opacity="1.00" d=" M 440.43 311.27 C 440.48 311.37 440.59 311.55 440.65 311.65 L 440.54 311.46 L 440.43 311.27 Z" />
<path fill="#5ad7c9" opacity="1.00" d=" M 333.10 312.16 C 333.54 312.14 334.40 312.12 334.83 312.10 C 334.37 312.34 333.46 312.81 333.00 313.04 L 333.10 312.16 Z" />
<path fill="#5ad7c9" opacity="1.00" d=" M 147.32 313.60 C 147.36 313.53 147.46 313.39 147.50 313.32 C 147.46 313.39 147.36 313.53 147.32 313.60 Z" />
<path fill="#5ad7c9" opacity="1.00" d=" M 197.44 313.69 C 197.53 313.65 197.71 313.56 197.80 313.52 C 197.71 313.56 197.53 313.65 197.44 313.69 Z" />
<path fill="#5ad7c9" opacity="1.00" d=" M 326.11 313.14 L 327.07 312.68 L 327.86 313.13 C 327.39 313.35 326.46 313.80 326.00 314.03 L 326.11 313.14 Z" />
<path fill="#5ad7c9" opacity="1.00" d=" M 441.57 313.27 C 441.61 313.34 441.69 313.48 441.73 313.55 C 441.69 313.48 441.61 313.34 441.57 313.27 Z" />
<path fill="#5ad7c9" opacity="1.00" d=" M 194.42 314.62 C 194.52 314.59 194.74 314.52 194.84 314.48 C 194.74 314.52 194.52 314.59 194.42 314.62 Z" />
<path fill="#5ad7c9" opacity="1.00" d=" M 320.10 314.13 L 321.05 313.67 L 321.84 314.10 C 321.38 314.33 320.45 314.79 319.99 315.02 L 320.10 314.13 Z" />
<path fill="#5ad7c9" opacity="1.00" d=" M 191.43 315.63 C 191.53 315.60 191.73 315.53 191.83 315.49 C 191.73 315.53 191.53 315.60 191.43 315.63 Z" />
<path fill="#5ad7c9" opacity="1.00" d=" M 313.06 316.06 C 313.39 314.43 314.32 314.17 315.85 315.28 C 315.02 315.94 314.09 316.20 313.06 316.06 Z" />
<path fill="#5ad7c9" opacity="1.00" d=" M 188.44 316.62 C 188.54 316.59 188.74 316.52 188.84 316.49 C 188.74 316.52 188.54 316.59 188.44 316.62 Z" />
<path fill="#5ad7c9" opacity="1.00" d=" M 307.10 317.05 C 307.42 315.45 308.35 315.18 309.89 316.24 C 309.07 316.95 308.14 317.22 307.10 317.05 Z" />
<path fill="#5ad7c9" opacity="1.00" d=" M 301.11 317.14 L 302.06 316.68 L 302.85 317.11 C 302.39 317.34 301.46 317.80 301.00 318.03 L 301.11 317.14 Z" />
<path fill="#5ad7c9" opacity="1.00" d=" M 183.43 318.68 C 183.52 318.64 183.70 318.55 183.79 318.51 C 183.70 318.55 183.52 318.64 183.43 318.68 Z" />
<path fill="#5ad7c9" opacity="1.00" d=" M 295.09 318.16 C 295.52 318.15 296.39 318.12 296.82 318.10 C 296.36 318.34 295.45 318.81 294.99 319.05 L 295.09 318.16 Z" />
<path fill="#5ad7c9" opacity="1.00" d=" M 444.53 318.35 C 444.57 318.40 444.63 318.50 444.67 318.55 C 444.63 318.50 444.57 318.40 444.53 318.35 Z" />
<path fill="#5ad7c9" opacity="1.00" d=" M 180.43 319.62 C 180.53 319.59 180.73 319.52 180.84 319.49 C 180.73 319.52 180.53 319.59 180.43 319.62 Z" />
<path fill="#5ad7c9" opacity="1.00" d=" M 289.11 319.14 L 290.06 318.67 L 290.87 319.10 C 290.40 319.33 289.47 319.79 289.01 320.02 L 289.11 319.14 Z" />
<path fill="#5ad7c9" opacity="1.00" d=" M 143.33 320.59 C 143.36 320.53 143.44 320.40 143.48 320.34 C 143.44 320.40 143.36 320.53 143.33 320.59 Z" />
<path fill="#5ad7c9" opacity="1.00" d=" M 177.45 320.62 C 177.54 320.59 177.74 320.52 177.84 320.49 C 177.74 320.52 177.54 320.59 177.45 320.62 Z" />
<path fill="#5ad7c9" opacity="1.00" d=" M 283.07 321.07 C 283.41 319.46 284.35 319.19 285.87 320.26 C 285.05 320.97 284.11 321.24 283.07 321.07 Z" />
<path fill="#5ad7c9" opacity="1.00" d=" M 272.07 322.16 L 273.00 321.69 L 273.80 322.13 C 273.34 322.36 272.42 322.82 271.96 323.05 L 272.07 322.16 Z" />
<path fill="#5ad7c9" opacity="1.00" d=" M 169.44 323.69 C 169.53 323.65 169.71 323.56 169.80 323.52 C 169.71 323.56 169.53 323.65 169.44 323.69 Z" />
<path fill="#5ad7c9" opacity="1.00" d=" M 266.10 323.14 L 267.04 322.67 L 267.84 323.10 C 267.37 323.33 266.45 323.80 265.99 324.03 L 266.10 323.14 Z" />
<path fill="#5ad7c9" opacity="1.00" d=" M 447.43 323.27 C 447.49 323.37 447.60 323.55 447.65 323.64 L 447.54 323.46 L 447.43 323.27 Z" />
<path fill="#5ad7c9" opacity="1.00" d=" M 166.42 324.62 C 166.52 324.59 166.73 324.52 166.83 324.49 C 166.73 324.52 166.52 324.59 166.42 324.62 Z" />
<path fill="#5ad7c9" opacity="1.00" d=" M 260.11 324.16 C 260.55 324.15 261.41 324.12 261.85 324.10 C 261.39 324.34 260.47 324.82 260.01 325.06 L 260.11 324.16 Z" />
<path fill="#5ad7c9" opacity="1.00" d=" M 140.33 325.58 C 140.37 325.52 140.45 325.40 140.49 325.33 C 140.45 325.40 140.37 325.52 140.33 325.58 Z" />
<path fill="#5ad7c9" opacity="1.00" d=" M 163.45 325.63 C 163.55 325.59 163.75 325.52 163.84 325.49 C 163.75 325.52 163.55 325.59 163.45 325.63 Z" />
<path fill="#5ad7c9" opacity="1.00" d=" M 255.07 325.21 C 255.47 325.14 256.27 325.02 256.66 324.96 C 256.27 325.24 255.47 325.79 255.07 326.07 L 255.07 325.21 Z" />
<path fill="#5ad7c9" opacity="1.00" d=" M 448.56 325.26 C 448.61 325.33 448.70 325.49 448.74 325.57 C 448.70 325.49 448.61 325.33 448.56 325.26 Z" />
<path fill="#5ad7c9" opacity="1.00" d=" M 244.10 328.03 C 244.42 326.41 245.34 326.17 246.87 327.29 C 246.04 327.96 245.12 328.21 244.10 328.03 Z" />
<path fill="#5ad7c9" opacity="1.00" d=" M 155.46 328.69 C 155.55 328.65 155.72 328.56 155.81 328.52 C 155.72 328.56 155.55 328.65 155.46 328.69 Z" />
<path fill="#5ad7c9" opacity="1.00" d=" M 239.10 328.16 C 239.53 328.15 240.40 328.13 240.83 328.12 C 240.37 328.35 239.44 328.82 238.98 329.06 L 239.10 328.16 Z" />
<path fill="#5ad7c9" opacity="1.00" d=" M 152.44 329.61 C 152.54 329.58 152.74 329.51 152.84 329.48 C 152.74 329.51 152.54 329.58 152.44 329.61 Z" />
<path fill="#5ad7c9" opacity="1.00" d=" M 234.09 329.20 C 234.49 329.14 235.28 329.03 235.68 328.97 C 235.28 329.24 234.47 329.79 234.07 330.06 L 234.09 329.20 Z" />
<path fill="#5ad7c9" opacity="1.00" d=" M 137.36 330.55 C 137.39 330.50 137.45 330.39 137.48 330.34 C 137.45 330.39 137.39 330.50 137.36 330.55 Z" />
<path fill="#5ad7c9" opacity="1.00" d=" M 451.54 330.30 C 451.57 330.35 451.63 330.44 451.66 330.49 C 451.63 330.44 451.57 330.35 451.54 330.30 Z" />
<path fill="#5ad7c9" opacity="1.00" d=" M 147.44 331.68 C 147.53 331.64 147.71 331.55 147.80 331.51 C 147.71 331.55 147.53 331.64 147.44 331.68 Z" />
<path fill="#5ad7c9" opacity="1.00" d=" M 144.45 332.61 C 144.55 332.58 144.74 332.52 144.84 332.49 C 144.74 332.52 144.55 332.58 144.45 332.61 Z" />
<path fill="#5ad7c9" opacity="1.00" d=" M 139.43 334.76 C 139.53 334.70 139.71 334.60 139.80 334.55 C 139.71 334.60 139.53 334.70 139.43 334.76 Z" />
<path fill="#5ad7c9" opacity="1.00" d=" M 209.07 334.18 C 209.47 334.13 210.28 334.04 210.68 334.00 C 210.28 334.26 209.47 334.78 209.06 335.04 L 209.07 334.18 Z" />
<path fill="#5ad7c9" opacity="1.00" d=" M 136.44 335.36 L 136.77 335.30 C 136.63 335.37 136.35 335.51 136.21 335.59 L 136.44 335.36 Z" />
<path fill="#5ad7c9" opacity="1.00" d=" M 204.10 335.16 C 204.53 335.15 205.41 335.13 205.84 335.12 C 205.38 335.35 204.45 335.81 203.99 336.04 L 204.10 335.16 Z" />
<path fill="#5ad7c9" opacity="1.00" d=" M 454.51 335.33 C 454.54 335.38 454.61 335.49 454.65 335.54 C 454.61 335.49 454.54 335.38 454.51 335.33 Z" />
<path fill="#5ad7c9" opacity="1.00" d=" M 132.31 336.51 C 132.38 336.48 132.52 336.41 132.60 336.37 C 132.52 336.41 132.38 336.48 132.31 336.51 Z" />
<path fill="#5ad7c9" opacity="1.00" d=" M 129.15 337.51 C 129.26 337.47 129.47 337.40 129.58 337.36 C 129.47 337.40 129.26 337.47 129.15 337.51 Z" />
<path fill="#5ad7c9" opacity="1.00" d=" M 195.08 337.19 C 195.48 337.15 196.28 337.05 196.68 337.01 C 196.28 337.27 195.47 337.80 195.06 338.07 L 195.08 337.19 Z" />
<path fill="#5ad7c9" opacity="1.00" d=" M 126.16 338.52 C 126.26 338.48 126.47 338.41 126.57 338.37 C 126.47 338.41 126.26 338.48 126.16 338.52 Z" />
<path fill="#5ad7c9" opacity="1.00" d=" M 133.47 338.62 C 133.51 338.57 133.58 338.46 133.62 338.40 C 133.58 338.46 133.51 338.57 133.47 338.62 Z" />
<path fill="#5ad7c9" opacity="1.00" d=" M 190.08 338.18 C 190.48 338.12 191.28 338.01 191.68 337.95 C 191.27 338.22 190.47 338.76 190.07 339.04 L 190.08 338.18 Z" />
<path fill="#5ad7c9" opacity="1.00" d=" M 123.16 339.52 C 123.27 339.48 123.48 339.41 123.59 339.37 C 123.48 339.41 123.27 339.48 123.16 339.52 Z" />
<path fill="#5ad7c9" opacity="1.00" d=" M 185.10 339.15 C 185.54 339.14 186.41 339.13 186.84 339.12 C 186.38 339.35 185.45 339.81 184.98 340.04 L 185.10 339.15 Z" />
<path fill="#5ad7c9" opacity="1.00" d=" M 120.17 340.52 C 120.28 340.49 120.49 340.42 120.60 340.38 C 120.49 340.42 120.28 340.49 120.17 340.52 Z" />
<path fill="#5ad7c9" opacity="1.00" d=" M 457.46 340.27 C 457.51 340.36 457.62 340.54 457.67 340.62 L 457.57 340.44 L 457.46 340.27 Z" />
<path fill="#5ad7c9" opacity="1.00" d=" M 117.20 341.48 C 117.30 341.44 117.48 341.35 117.57 341.30 C 117.48 341.35 117.30 341.44 117.20 341.48 Z" />
<path fill="#5ad7c9" opacity="1.00" d=" M 176.07 341.19 C 176.47 341.14 177.27 341.05 177.68 341.00 C 177.27 341.26 176.46 341.79 176.06 342.05 L 176.07 341.19 Z" />
<path fill="#5ad7c9" opacity="1.00" d=" M 458.57 342.28 C 458.60 342.35 458.67 342.48 458.71 342.55 C 458.67 342.48 458.60 342.35 458.57 342.28 Z" />
<path fill="#5ad7c9" opacity="1.00" d=" M 167.08 343.15 L 168.04 342.70 L 168.83 343.17 C 168.37 343.39 167.43 343.82 166.96 344.03 L 167.08 343.15 Z" />
<path fill="#5ad7c9" opacity="1.00" d=" M 109.17 344.51 C 109.27 344.48 109.47 344.42 109.57 344.38 C 109.47 344.42 109.27 344.48 109.17 344.51 Z" />
<path fill="#5ad7c9" opacity="1.00" d=" M 106.19 345.47 C 106.28 345.43 106.46 345.34 106.54 345.30 C 106.46 345.34 106.28 345.43 106.19 345.47 Z" />
<path fill="#5ad7c9" opacity="1.00" d=" M 129.54 345.66 C 129.57 345.62 129.62 345.53 129.65 345.48 C 129.62 345.53 129.57 345.62 129.54 345.66 Z" />
<path fill="#5ad7c9" opacity="1.00" d=" M 154.07 346.19 C 154.47 346.14 155.27 346.05 155.67 346.01 C 155.27 346.27 154.46 346.79 154.05 347.06 L 154.07 346.19 Z" />
<path fill="#5ad7c9" opacity="1.00" d=" M 461.50 347.31 C 461.55 347.38 461.63 347.52 461.68 347.59 C 461.63 347.52 461.55 347.38 461.50 347.31 Z" />
<path fill="#5ad7c9" opacity="1.00" d=" M 98.16 348.51 C 98.26 348.48 98.47 348.41 98.57 348.38 C 98.47 348.41 98.26 348.48 98.16 348.51 Z" />
<path fill="#5ad7c9" opacity="1.00" d=" M 146.07 348.55 C 146.21 348.48 146.50 348.33 146.65 348.26 C 146.50 348.33 146.21 348.48 146.07 348.55 Z" />
<path fill="#5ad7c9" opacity="1.00" d=" M 95.21 349.49 C 95.30 349.45 95.48 349.36 95.57 349.32 C 95.48 349.36 95.30 349.45 95.21 349.49 Z" />
<path fill="#5ad7c9" opacity="1.00" d=" M 137.09 350.13 L 138.06 349.69 L 138.86 350.17 C 138.39 350.38 137.45 350.81 136.97 351.02 L 137.09 350.13 Z" />
<path fill="#5ad7c9" opacity="1.00" d=" M 90.20 351.51 C 90.29 351.46 90.46 351.38 90.55 351.34 C 90.46 351.38 90.29 351.46 90.20 351.51 Z" />
<path fill="#5ad7c9" opacity="1.00" d=" M 133.09 351.13 L 134.05 350.66 L 134.85 351.10 C 134.38 351.33 133.45 351.79 132.98 352.02 L 133.09 351.13 Z" />
<path fill="#5ad7c9" opacity="1.00" d=" M 126.85 353.30 C 125.73 355.17 123.54 353.04 125.59 352.04 C 125.90 352.35 126.53 352.99 126.85 353.30 Z" />
<path fill="#5ad7c9" opacity="1.00" d=" M 129.08 352.12 L 130.04 351.66 L 130.84 352.09 C 130.37 352.32 129.44 352.79 128.97 353.02 L 129.08 352.12 Z" />
<path fill="#5ad7c9" opacity="1.00" d=" M 464.46 352.28 C 464.51 352.36 464.61 352.53 464.66 352.62 L 464.56 352.43 L 464.46 352.28 Z" />
<path fill="#5ad7c9" opacity="1.00" d=" M 85.17 353.51 C 85.27 353.48 85.46 353.42 85.55 353.39 C 85.46 353.42 85.27 353.48 85.17 353.51 Z" />
<path fill="#5ad7c9" opacity="1.00" d=" M 82.21 354.50 C 82.30 354.45 82.48 354.36 82.57 354.32 C 82.48 354.36 82.30 354.45 82.21 354.50 Z" />
<path fill="#5ad7c9" opacity="1.00" d=" M 465.55 354.25 C 465.59 354.33 465.68 354.49 465.72 354.57 C 465.68 354.49 465.59 354.33 465.55 354.25 Z" />
<path fill="#5ad7c9" opacity="1.00" d=" M 119.38 355.60 C 119.51 355.56 119.77 355.49 119.90 355.46 C 119.77 355.49 119.51 355.56 119.38 355.60 Z" />
<path fill="#5ad7c9" opacity="1.00" d=" M 77.21 356.50 C 77.29 356.46 77.45 356.38 77.54 356.34 C 77.45 356.38 77.29 356.46 77.21 356.50 Z" />
<path fill="#5ad7c9" opacity="1.00" d=" M 116.43 356.64 C 116.53 356.60 116.73 356.53 116.84 356.49 C 116.73 356.53 116.53 356.60 116.43 356.64 Z" />
<path fill="#5ad7c9" opacity="1.00" d=" M 112.35 357.86 C 112.49 357.76 112.77 357.56 112.91 357.46 C 112.77 357.56 112.49 357.76 112.35 357.86 Z" />
<path fill="#5ad7c9" opacity="1.00" d=" M 72.18 358.51 C 72.28 358.48 72.47 358.42 72.57 358.39 C 72.47 358.42 72.28 358.48 72.18 358.51 Z" />
<path fill="#5ad7c9" opacity="1.00" d=" M 108.27 358.91 C 108.70 358.66 109.54 358.15 109.96 357.90 L 109.93 358.79 L 109.07 359.30 L 108.27 358.91 Z" />
<path fill="#5ad7c9" opacity="1.00" d=" M 121.33 358.59 C 121.38 358.53 121.47 358.40 121.52 358.33 C 121.47 358.40 121.38 358.53 121.33 358.59 Z" />
<path fill="#5ad7c9" opacity="1.00" d=" M 69.21 359.50 C 69.30 359.45 69.49 359.37 69.58 359.32 C 69.49 359.37 69.30 359.45 69.21 359.50 Z" />
<path fill="#5ad7c9" opacity="1.00" d=" M 105.40 359.62 C 105.51 359.59 105.74 359.52 105.86 359.49 C 105.74 359.52 105.51 359.59 105.40 359.62 Z" />
<path fill="#5ad7c9" opacity="1.00" d=" M 468.53 359.33 C 468.55 359.37 468.61 359.46 468.63 359.50 C 468.61 359.46 468.55 359.37 468.53 359.33 Z" />
<path fill="#5ad7c9" opacity="1.00" d=" M 101.39 360.61 C 101.52 360.57 101.76 360.51 101.88 360.47 C 101.76 360.51 101.52 360.57 101.39 360.61 Z" />
<path fill="#5ad7c9" opacity="1.00" d=" M 64.22 361.49 C 64.30 361.44 64.46 361.36 64.54 361.32 C 64.46 361.36 64.30 361.44 64.22 361.49 Z" />
<path fill="#5ad7c9" opacity="1.00" d=" M 98.42 361.64 C 98.52 361.60 98.72 361.53 98.82 361.49 C 98.72 361.53 98.52 361.60 98.42 361.64 Z" />
<path fill="#5ad7c9" opacity="1.00" d=" M 62.23 362.49 C 62.31 362.45 62.48 362.36 62.56 362.32 C 62.48 362.36 62.31 362.45 62.23 362.49 Z" />
<path fill="#5ad7c9" opacity="1.00" d=" M 94.34 362.83 C 94.48 362.74 94.77 362.55 94.91 362.46 C 94.77 362.55 94.48 362.74 94.34 362.83 Z" />
<path fill="#5ad7c9" opacity="1.00" d=" M 90.10 363.73 C 90.58 363.54 91.55 363.15 92.04 362.95 L 91.89 363.86 L 90.89 364.26 L 90.10 363.73 Z" />
<path fill="#5ad7c9" opacity="1.00" d=" M 57.20 364.51 C 57.29 364.47 57.46 364.39 57.55 364.35 C 57.46 364.39 57.29 364.47 57.20 364.51 Z" />
<path fill="#5ad7c9" opacity="1.00" d=" M 87.46 364.68 C 87.55 364.65 87.73 364.58 87.82 364.55 C 87.73 364.58 87.55 364.65 87.46 364.68 Z" />
<path fill="#5ad7c9" opacity="1.00" d=" M 471.43 364.28 C 471.49 364.37 471.59 364.55 471.65 364.64 L 471.54 364.46 L 471.43 364.28 Z" />
<path fill="#5ad7c9" opacity="1.00" d=" M 83.35 365.85 C 83.49 365.75 83.77 365.55 83.91 365.46 C 83.77 365.55 83.49 365.75 83.35 365.85 Z" />
<path fill="#5ad7c9" opacity="1.00" d=" M 117.37 365.51 C 117.39 365.47 117.44 365.39 117.46 365.35 C 117.44 365.39 117.39 365.47 117.37 365.51 Z" />
<path fill="#5ad7c9" opacity="1.00" d=" M 52.20 366.49 C 52.28 366.45 52.45 366.37 52.54 366.33 C 52.45 366.37 52.28 366.45 52.20 366.49 Z" />
<path fill="#5ad7c9" opacity="1.00" d=" M 79.10 366.71 C 79.59 366.52 80.57 366.14 81.06 365.95 L 80.90 366.85 L 79.89 367.25 L 79.10 366.71 Z" />
<path fill="#5ad7c9" opacity="1.00" d=" M 472.57 366.28 C 472.60 366.34 472.67 366.47 472.70 366.53 C 472.67 366.47 472.60 366.34 472.57 366.28 Z" />
<path fill="#5ad7c9" opacity="1.00" d=" M 76.46 367.73 C 76.56 367.69 76.76 367.61 76.86 367.58 C 76.76 367.61 76.56 367.69 76.46 367.73 Z" />
<path fill="#5ad7c9" opacity="1.00" d=" M 45.18 369.52 C 45.27 369.48 45.47 369.38 45.56 369.34 C 45.47 369.38 45.27 369.48 45.18 369.52 Z" />
<path fill="#5ad7c9" opacity="1.00" d=" M 69.38 369.69 C 69.51 369.65 69.78 369.57 69.91 369.53 C 69.78 369.57 69.51 369.65 69.38 369.69 Z" />
<path fill="#5ad7c9" opacity="1.00" d=" M 114.33 370.58 C 114.37 370.52 114.46 370.38 114.50 370.32 C 114.46 370.38 114.37 370.52 114.33 370.58 Z" />
<path fill="#5ad7c9" opacity="1.00" d=" M 40.22 371.48 C 40.30 371.44 40.45 371.36 40.53 371.33 C 40.45 371.36 40.30 371.44 40.22 371.48 Z" />
<path fill="#5ad7c9" opacity="1.00" d=" M 62.35 371.80 C 62.49 371.73 62.77 371.59 62.91 371.51 C 62.77 371.59 62.49 371.73 62.35 371.80 Z" />
<path fill="#5ad7c9" opacity="1.00" d=" M 281.78 385.05 C 281.95 377.23 289.16 370.46 296.99 370.83 C 356.15 370.79 415.33 370.97 474.49 370.72 C 475.62 371.84 476.59 373.13 477.32 374.56 C 478.29 377.09 479.91 379.26 481.26 381.57 C 482.05 383.36 483.41 384.82 484.26 386.58 C 485.09 388.34 486.35 389.86 487.32 391.56 C 488.27 394.10 489.92 396.24 491.26 398.57 C 492.07 400.36 493.37 401.85 494.32 403.56 C 495.27 406.10 496.93 408.25 498.26 410.58 C 499.10 412.34 500.35 413.86 501.32 415.56 C 502.28 418.09 503.90 420.26 505.27 422.57 C 506.06 424.36 507.37 425.85 508.32 427.56 C 509.73 431.01 511.94 434.03 514.13 437.02 C 512.90 436.19 511.53 435.53 510.02 435.59 C 441.34 435.61 372.66 435.58 303.97 435.61 C 299.09 435.59 293.82 436.15 289.41 433.60 C 284.21 430.78 281.40 424.80 281.64 419.01 C 281.73 407.69 281.43 396.36 281.78 385.05 Z" />
<path fill="#5ad7c9" opacity="1.00" d=" M 38.23 372.49 C 38.31 372.45 38.49 372.36 38.58 372.32 C 38.49 372.36 38.31 372.45 38.23 372.49 Z" />
<path fill="#5ad7c9" opacity="1.00" d=" M 58.09 372.70 C 58.58 372.51 59.56 372.14 60.05 371.95 L 59.90 372.85 L 58.89 373.25 L 58.09 372.70 Z" />
<path fill="#5ad7c9" opacity="1.00" d=" M 55.43 373.79 C 55.54 373.74 55.77 373.65 55.88 373.60 C 55.77 373.65 55.54 373.74 55.43 373.79 Z" />
<path fill="#5ad7c9" opacity="1.00" d=" M 33.22 374.49 C 33.30 374.45 33.46 374.37 33.54 374.33 C 33.46 374.37 33.30 374.45 33.22 374.49 Z" />
<path fill="#5ad7c9" opacity="1.00" d=" M 51.10 374.69 C 51.59 374.51 52.57 374.14 53.06 373.95 L 52.90 374.86 L 51.89 375.24 L 51.10 374.69 Z" />
<path fill="#5ad7c9" opacity="1.00" d=" M 31.23 375.47 C 31.31 375.43 31.46 375.35 31.54 375.31 C 31.46 375.35 31.31 375.43 31.23 375.47 Z" />
<path fill="#5ad7c9" opacity="1.00" d=" M 48.43 375.79 C 48.55 375.74 48.77 375.65 48.89 375.60 C 48.77 375.65 48.55 375.74 48.43 375.79 Z" />
<path fill="#5ad7c9" opacity="1.00" d=" M 29.23 376.49 C 29.32 376.44 29.50 376.36 29.59 376.31 C 29.50 376.36 29.32 376.44 29.23 376.49 Z" />
<path fill="#5ad7c9" opacity="1.00" d=" M 44.10 376.73 C 44.59 376.54 45.56 376.15 46.05 375.95 L 45.90 376.85 L 44.90 377.26 L 44.10 376.73 Z" />
<path fill="#5ad7c9" opacity="1.00" d=" M 41.47 377.68 C 41.56 377.64 41.74 377.58 41.83 377.55 C 41.74 377.58 41.56 377.64 41.47 377.68 Z" />
<path fill="#5ad7c9" opacity="1.00" d=" M 110.32 377.56 C 110.35 377.51 110.42 377.40 110.45 377.35 C 110.42 377.40 110.35 377.51 110.32 377.56 Z" />
<path fill="#5ad7c9" opacity="1.00" d=" M 24.22 378.48 C 24.30 378.45 24.45 378.37 24.52 378.33 C 24.45 378.37 24.30 378.45 24.22 378.48 Z" />
<path fill="#5ad7c9" opacity="1.00" d=" M 38.43 378.63 C 38.54 378.59 38.74 378.52 38.85 378.49 C 38.74 378.52 38.54 378.59 38.43 378.63 Z" />
<path fill="#5ad7c9" opacity="1.00" d=" M 22.21 379.49 C 22.30 379.44 22.49 379.35 22.58 379.31 C 22.49 379.35 22.30 379.44 22.21 379.49 Z" />
<path fill="#5ad7c9" opacity="1.00" d=" M 35.41 379.64 C 35.52 379.60 35.72 379.53 35.82 379.49 C 35.72 379.53 35.52 379.60 35.41 379.64 Z" />
<path fill="#5ad7c9" opacity="1.00" d=" M 31.40 380.59 C 31.52 380.56 31.75 380.50 31.87 380.47 C 31.75 380.50 31.52 380.56 31.40 380.59 Z" />
<path fill="#5ad7c9" opacity="1.00" d=" M 28.41 381.70 C 28.52 381.65 28.75 381.56 28.87 381.51 C 28.75 381.56 28.52 381.65 28.41 381.70 Z" />
<path fill="#5ad7c9" opacity="1.00" d=" M 15.23 382.50 C 15.31 382.46 15.47 382.38 15.55 382.34 C 15.47 382.38 15.31 382.46 15.23 382.50 Z" />
<path fill="#5ad7c9" opacity="1.00" d=" M 107.35 382.54 C 107.38 382.49 107.44 382.39 107.47 382.34 C 107.44 382.39 107.38 382.49 107.35 382.54 Z" />
<path fill="#5ad7c9" opacity="1.00" d=" M 13.24 383.49 C 13.32 383.45 13.48 383.37 13.56 383.33 C 13.48 383.37 13.32 383.45 13.24 383.49 Z" />
<path fill="#5ad7c9" opacity="1.00" d=" M 21.41 383.62 C 21.53 383.59 21.76 383.53 21.87 383.50 C 21.76 383.53 21.53 383.59 21.41 383.62 Z" />
<path fill="#5ad7c9" opacity="1.00" d=" M 11.22 384.44 C 11.31 384.40 11.47 384.30 11.55 384.26 C 11.47 384.30 11.31 384.40 11.22 384.44 Z" />
<path fill="#5ad7c9" opacity="1.00" d=" M 18.39 384.68 C 18.51 384.64 18.74 384.55 18.85 384.51 C 18.74 384.55 18.51 384.64 18.39 384.68 Z" />
<path fill="#5ad7c9" opacity="1.00" d=" M 9.16 385.57 C 9.28 385.51 9.52 385.41 9.64 385.35 L 9.42 385.49 L 9.16 385.57 Z" />
<path fill="#5ad7c9" opacity="1.00" d=" M 11.39 386.69 C 11.51 386.65 11.76 386.57 11.89 386.53 C 11.76 386.57 11.51 386.65 11.39 386.69 Z" />
<path fill="#5ad7c9" opacity="1.00" d=" M 103.34 389.49 C 103.36 389.46 103.41 389.39 103.43 389.36 C 103.41 389.39 103.36 389.46 103.34 389.49 Z" />
<path fill="#5ad7c9" opacity="1.00" d=" M 100.33 394.56 C 100.37 394.51 100.44 394.39 100.48 394.33 C 100.44 394.39 100.37 394.51 100.33 394.56 Z" />
<path fill="#5ad7c9" opacity="1.00" d=" M 97.32 399.54 C 97.36 399.49 97.43 399.38 97.46 399.33 C 97.43 399.38 97.36 399.49 97.32 399.54 Z" />
<path fill="#5ad7c9" opacity="1.00" d=" M 93.34 406.56 C 93.37 406.50 93.45 406.38 93.48 406.32 C 93.45 406.38 93.37 406.50 93.34 406.56 Z" />
<path fill="#5ad7c9" opacity="1.00" d=" M 90.33 411.60 C 90.37 411.53 90.46 411.39 90.51 411.31 C 90.46 411.39 90.37 411.53 90.33 411.60 Z" />
<path fill="#5ad7c9" opacity="1.00" d=" M 87.34 416.61 C 87.39 416.53 87.48 416.36 87.53 416.28 L 87.43 416.43 L 87.34 416.61 Z" />
<path fill="#5ad7c9" opacity="1.00" d=" M 86.27 418.56 C 86.31 418.48 86.40 418.34 86.44 418.26 C 86.40 418.34 86.31 418.48 86.27 418.56 Z" />
<path fill="#5ad7c9" opacity="1.00" d=" M 84.33 421.64 C 84.39 421.55 84.50 421.36 84.56 421.26 L 84.44 421.45 L 84.33 421.64 Z" />
<path fill="#5ad7c9" opacity="1.00" d=" M 83.28 423.56 C 83.32 423.49 83.40 423.34 83.44 423.27 C 83.40 423.34 83.32 423.49 83.28 423.56 Z" />
<path fill="#5ad7c9" opacity="1.00" d=" M 80.34 428.52 C 80.36 428.47 80.42 428.39 80.45 428.34 C 80.42 428.39 80.36 428.47 80.34 428.52 Z" />
<path fill="#5ad7c9" opacity="1.00" d=" M 76.35 435.51 C 76.37 435.47 76.43 435.38 76.45 435.34 C 76.43 435.38 76.37 435.47 76.35 435.51 Z" />
<path fill="#5ad7c9" opacity="1.00" d=" M 73.36 440.52 C 73.39 440.47 73.46 440.38 73.49 440.33 C 73.46 440.38 73.39 440.47 73.36 440.52 Z" />
<path fill="#5ad7c9" opacity="1.00" d=" M 516.53 441.36 C 516.55 441.40 516.61 441.49 516.64 441.53 C 516.61 441.49 516.55 441.40 516.53 441.36 Z" />
<path fill="#5ad7c9" opacity="1.00" d=" M 70.35 445.64 C 70.40 445.55 70.51 445.37 70.56 445.28 L 70.46 445.46 L 70.35 445.64 Z" />
<path fill="#5ad7c9" opacity="1.00" d=" M 519.50 446.32 C 519.54 446.39 519.63 446.53 519.67 446.60 C 519.63 446.53 519.54 446.39 519.50 446.32 Z" />
<path fill="#5ad7c9" opacity="1.00" d=" M 69.30 447.51 C 69.33 447.47 69.38 447.37 69.40 447.33 C 69.38 447.37 69.33 447.47 69.30 447.51 Z" />
<path fill="#5ad7c9" opacity="1.00" d=" M 522.46 451.28 C 522.51 451.36 522.61 451.54 522.66 451.62 L 522.56 451.44 L 522.46 451.28 Z" />
<path fill="#5ad7c9" opacity="1.00" d=" M 66.33 452.56 C 66.36 452.51 66.43 452.40 66.47 452.34 C 66.43 452.40 66.36 452.51 66.33 452.56 Z" />
<path fill="#5ad7c9" opacity="1.00" d=" M 523.55 453.26 C 523.59 453.34 523.68 453.49 523.72 453.57 C 523.68 453.49 523.59 453.34 523.55 453.26 Z" />
<path fill="#5ad7c9" opacity="1.00" d=" M 63.33 457.61 C 63.38 457.53 63.48 457.36 63.53 457.28 L 63.43 457.43 L 63.33 457.61 Z" />
<path fill="#5ad7c9" opacity="1.00" d=" M 283.80 465.88 C 286.63 460.94 292.34 458.09 297.97 458.30 C 366.99 458.32 436.01 458.31 505.03 458.32 C 511.97 458.43 518.93 458.00 525.86 458.59 C 527.33 458.82 527.73 460.44 528.23 461.62 C 529.13 463.35 530.36 464.87 531.32 466.56 C 532.27 469.10 533.92 471.25 535.26 473.59 C 536.10 475.35 537.36 476.86 538.32 478.56 C 539.29 481.09 540.91 483.25 542.26 485.58 C 543.09 487.34 544.35 488.86 545.32 490.56 C 546.27 493.10 547.92 495.25 549.26 497.58 C 550.09 499.35 551.36 500.85 552.32 502.56 C 553.28 505.10 554.92 507.25 556.27 509.58 C 557.08 511.36 558.37 512.86 559.33 514.57 C 560.16 517.27 562.34 519.27 563.19 521.93 C 477.11 521.91 391.03 521.91 304.96 521.93 C 299.96 521.90 294.58 522.52 290.06 519.95 C 285.27 517.44 281.90 512.39 281.76 506.95 C 281.44 497.65 281.76 488.34 281.64 479.04 C 281.64 474.60 281.43 469.82 283.80 465.88 Z" />
<path fill="#5ad7c9" opacity="1.00" d=" M 62.28 459.57 C 62.32 459.49 62.40 459.35 62.44 459.27 C 62.40 459.35 62.32 459.49 62.28 459.57 Z" />
<path fill="#5ad7c9" opacity="1.00" d=" M 59.34 464.57 C 59.38 464.51 59.45 464.39 59.49 464.34 C 59.45 464.39 59.38 464.51 59.34 464.57 Z" />
<path fill="#5ad7c9" opacity="1.00" d=" M 56.33 469.61 C 56.38 469.53 56.48 469.36 56.53 469.28 L 56.43 469.43 L 56.33 469.61 Z" />
<path fill="#5ad7c9" opacity="1.00" d=" M 55.29 471.53 C 55.33 471.47 55.39 471.34 55.43 471.28 C 55.39 471.34 55.33 471.47 55.29 471.53 Z" />
<path fill="#5ad7c9" opacity="1.00" d=" M 52.34 476.53 C 52.37 476.49 52.43 476.39 52.47 476.34 C 52.43 476.39 52.37 476.49 52.34 476.53 Z" />
<path fill="#5ad7c9" opacity="1.00" d=" M 49.35 481.65 C 49.41 481.56 49.52 481.37 49.57 481.27 L 49.46 481.46 L 49.35 481.65 Z" />
<path fill="#5ad7c9" opacity="1.00" d=" M 48.28 483.57 C 48.32 483.49 48.40 483.34 48.44 483.27 C 48.40 483.34 48.32 483.49 48.28 483.57 Z" />
<path fill="#5ad7c9" opacity="1.00" d=" M 45.33 488.58 C 45.36 488.52 45.44 488.40 45.48 488.34 C 45.44 488.40 45.36 488.52 45.33 488.58 Z" />
<path fill="#5ad7c9" opacity="1.00" d=" M 42.34 493.51 C 42.36 493.47 42.42 493.39 42.45 493.35 C 42.42 493.39 42.36 493.47 42.34 493.51 Z" />
<path fill="#5ad7c9" opacity="1.00" d=" M 38.33 500.59 C 38.36 500.53 38.43 500.42 38.46 500.36 C 38.43 500.42 38.36 500.53 38.33 500.59 Z" />
<path fill="#5ad7c9" opacity="1.00" d=" M 35.32 505.55 C 35.36 505.50 35.42 505.40 35.45 505.35 C 35.42 505.40 35.36 505.50 35.32 505.55 Z" />
<path fill="#5ad7c9" opacity="1.00" d=" M 32.33 510.60 C 32.38 510.52 32.48 510.36 32.53 510.27 L 32.43 510.43 L 32.33 510.60 Z" />
<path fill="#5ad7c9" opacity="1.00" d=" M 31.28 512.57 C 31.32 512.49 31.40 512.34 31.44 512.27 C 31.40 512.34 31.32 512.49 31.28 512.57 Z" />
<path fill="#5ad7c9" opacity="1.00" d=" M 28.31 517.59 C 28.35 517.52 28.43 517.39 28.47 517.33 C 28.43 517.39 28.35 517.52 28.31 517.59 Z" />
<path fill="#5ad7c9" opacity="1.00" d=" M 25.24 522.54 C 25.30 522.47 25.41 522.34 25.46 522.27 C 25.41 522.34 25.30 522.47 25.24 522.54 Z" />
<path fill="#5ad7c9" opacity="1.00" d=" M 564.60 523.30 C 564.63 523.34 564.68 523.44 564.71 523.49 C 564.68 523.44 564.63 523.34 564.60 523.30 Z" />
<path fill="#5ad7c9" opacity="1.00" d=" M 24.32 524.57 C 24.36 524.49 24.45 524.32 24.49 524.23 C 24.45 524.32 24.36 524.49 24.32 524.57 Z" />
<path fill="#5ad7c9" opacity="1.00" d=" M 23.20 526.57 C 23.26 526.47 23.37 526.27 23.43 526.17 C 23.37 526.27 23.26 526.47 23.20 526.57 Z" />
<path fill="#5ad7c9" opacity="1.00" d=" M 565.97 526.97 L 566.87 527.08 L 567.33 528.04 L 566.87 528.84 C 566.65 528.37 566.20 527.43 565.97 526.97 Z" />
<path fill="#5ad7c9" opacity="1.00" d=" M 22.96 533.84 C 21.24 534.06 21.24 529.88 22.97 530.15 C 23.07 531.37 23.07 532.60 22.96 533.84 Z" />
<path fill="#5ad7c9" opacity="1.00" d=" M 25.32 541.48 C 25.35 541.52 25.40 541.60 25.42 541.64 C 25.40 541.60 25.35 541.52 25.32 541.48 Z" />
<path fill="#5ad7c9" opacity="1.00" d=" M 552.01 547.99 C 557.04 548.10 561.96 545.54 564.73 541.33 C 565.27 544.39 564.67 547.53 565.14 550.58 L 566.06 551.23 C 564.92 552.27 564.26 554.50 565.97 555.41 C 566.01 569.13 566.05 582.85 565.95 596.56 C 564.53 597.80 565.22 599.90 564.41 601.46 C 563.27 603.00 562.26 604.62 561.29 606.28 C 559.98 607.00 558.67 607.74 557.58 608.79 C 556.41 608.83 555.39 609.20 554.51 609.91 C 469.00 610.07 383.49 609.92 297.97 609.99 C 295.83 609.87 293.50 610.47 291.56 609.34 C 291.07 609.07 290.09 608.54 289.60 608.27 C 288.67 607.60 286.63 607.54 287.03 605.91 L 285.94 606.07 L 286.05 605.00 C 284.48 605.18 284.32 603.36 283.66 602.42 C 283.16 601.10 282.93 599.67 282.08 598.52 C 281.95 585.35 282.02 572.18 282.04 559.01 C 282.20 558.65 282.52 557.92 282.68 557.56 C 282.95 557.06 283.47 556.08 283.74 555.59 C 283.98 555.08 284.45 554.07 284.69 553.57 C 285.53 550.70 288.61 549.95 290.55 548.04 C 377.70 547.93 464.86 548.05 552.01 547.99 Z" />
<path fill="#5ad7c9" opacity="1.00" d=" M 31.29 546.54 C 31.35 546.57 31.46 546.62 31.51 546.64 C 31.46 546.62 31.35 546.57 31.29 546.54 Z" />
</g>
<g id="#382980ff">
<path fill="#382980" opacity="1.00" d=" M 290.63 77.25 C 293.21 77.13 296.13 76.29 298.51 77.67 C 299.00 77.84 299.99 78.19 300.49 78.36 C 300.54 78.39 300.65 78.44 300.70 78.46 C 301.14 78.77 302.02 79.39 302.46 79.70 C 305.63 80.64 306.51 84.12 308.29 86.55 C 308.94 87.87 309.71 89.11 310.52 90.34 C 310.55 90.39 310.62 90.50 310.66 90.55 C 311.60 92.12 312.49 93.70 313.43 95.27 L 313.54 95.46 L 313.65 95.65 L 314.56 97.28 C 314.60 97.35 314.67 97.48 314.71 97.55 C 315.57 99.19 316.48 100.80 317.52 102.34 C 317.56 102.41 317.64 102.53 317.68 102.59 C 318.28 103.54 318.82 104.53 319.29 105.55 C 319.60 105.99 320.22 106.88 320.53 107.32 C 320.57 107.38 320.65 107.50 320.68 107.56 C 321.26 108.53 321.80 109.51 322.31 110.52 C 322.60 110.96 323.18 111.84 323.47 112.27 L 323.57 112.43 L 323.67 112.62 L 324.55 114.26 C 324.59 114.34 324.67 114.49 324.72 114.56 C 325.56 116.19 326.48 117.78 327.49 119.32 C 327.54 119.39 327.63 119.54 327.67 119.61 C 328.61 121.15 329.51 122.72 330.44 124.27 L 330.54 124.46 L 330.65 124.64 L 331.56 126.27 C 331.60 126.35 331.68 126.50 331.72 126.57 C 332.57 128.21 333.49 129.80 334.52 131.33 C 334.55 131.39 334.63 131.51 334.66 131.57 C 335.59 133.17 336.50 134.79 337.52 136.34 C 337.55 136.39 337.61 136.49 337.64 136.54 C 338.59 138.10 339.50 139.69 340.43 141.27 L 340.53 141.46 L 340.65 141.65 L 341.56 143.27 C 341.60 143.34 341.68 143.48 341.72 143.55 C 342.57 145.20 343.45 146.84 344.55 148.34 C 344.58 148.39 344.65 148.49 344.68 148.54 C 345.31 149.49 345.84 150.50 346.26 151.57 C 346.58 152.01 347.22 152.90 347.53 153.35 C 347.56 153.40 347.62 153.49 347.65 153.53 C 348.61 155.09 349.49 156.70 350.43 158.27 L 350.53 158.46 L 350.64 158.65 L 351.57 160.29 C 351.60 160.35 351.67 160.48 351.71 160.55 C 352.57 162.19 353.47 163.83 354.55 165.35 C 354.58 165.40 354.64 165.49 354.67 165.54 C 355.30 166.49 355.83 167.50 356.26 168.56 C 356.58 169.00 357.21 169.89 357.53 170.34 C 357.56 170.39 357.63 170.50 357.67 170.55 C 358.60 172.11 359.49 173.71 360.44 175.28 L 360.54 175.46 L 360.65 175.64 L 361.57 177.28 C 361.61 177.35 361.68 177.49 361.72 177.56 C 362.57 179.20 363.49 180.80 364.52 182.35 C 364.55 182.40 364.62 182.52 364.66 182.58 C 365.59 184.19 366.49 185.81 367.54 187.35 C 367.58 187.40 367.64 187.51 367.68 187.56 C 368.29 188.52 368.82 189.52 369.27 190.57 C 369.59 191.01 370.22 191.89 370.54 192.33 C 370.58 192.39 370.65 192.50 370.69 192.55 C 371.30 193.50 371.83 194.50 372.28 195.54 C 372.60 196.00 373.23 196.90 373.54 197.36 C 373.57 197.40 373.63 197.49 373.66 197.54 C 374.42 198.76 375.11 200.05 375.72 201.37 C 376.25 202.40 376.86 203.39 377.53 204.34 C 377.56 204.39 377.62 204.48 377.65 204.53 C 378.29 205.48 378.83 206.49 379.29 207.55 C 379.58 207.98 380.17 208.84 380.46 209.27 L 380.57 209.43 L 380.67 209.62 L 381.55 211.26 C 381.59 211.34 381.67 211.49 381.71 211.57 C 382.55 213.21 383.48 214.80 384.52 216.33 C 384.55 216.38 384.62 216.49 384.65 216.55 C 385.59 218.15 386.47 219.78 387.51 221.32 C 387.55 221.39 387.63 221.53 387.68 221.60 C 388.28 222.53 388.82 223.51 389.30 224.53 C 389.59 224.96 390.18 225.84 390.47 226.27 L 390.57 226.43 L 390.67 226.61 L 391.57 228.27 C 391.60 228.34 391.67 228.47 391.71 228.54 C 392.55 230.19 393.46 231.80 394.52 233.34 C 394.56 233.40 394.64 233.52 394.68 233.58 C 395.29 234.53 395.82 235.52 396.27 236.56 C 396.59 237.00 397.22 237.88 397.53 238.32 C 397.57 238.38 397.65 238.51 397.69 238.57 C 398.29 239.52 398.82 240.52 399.28 241.56 C 399.59 242.00 400.22 242.87 400.53 243.31 C 400.57 243.37 400.66 243.49 400.70 243.55 C 401.51 244.49 401.99 245.56 402.16 246.76 L 401.54 247.80 C 401.12 247.99 400.28 248.36 399.85 248.54 C 399.75 248.59 399.56 248.67 399.46 248.71 C 398.57 248.90 396.80 249.27 395.91 249.46 C 395.78 249.52 395.50 249.65 395.36 249.72 C 394.65 249.82 393.23 250.03 392.52 250.13 C 391.38 250.78 390.17 251.24 388.90 251.53 C 388.77 251.57 388.51 251.65 388.38 251.69 C 387.66 251.80 386.24 252.03 385.52 252.15 C 384.37 252.78 383.15 253.23 381.87 253.51 C 381.76 253.55 381.53 253.61 381.42 253.64 C 380.53 253.85 378.76 254.26 377.87 254.47 C 377.75 254.50 377.52 254.57 377.40 254.60 C 376.76 254.83 375.50 255.28 374.87 255.51 C 374.75 255.56 374.52 255.65 374.40 255.69 C 373.68 255.81 372.24 256.03 371.52 256.15 C 370.38 256.80 369.17 257.25 367.88 257.50 C 367.77 257.53 367.54 257.59 367.42 257.62 C 366.77 257.84 365.48 258.28 364.83 258.50 C 364.73 258.53 364.53 258.60 364.43 258.64 C 363.54 258.85 361.76 259.27 360.87 259.48 C 360.75 259.51 360.51 259.58 360.40 259.61 C 359.76 259.83 358.48 260.26 357.85 260.48 C 357.74 260.52 357.53 260.59 357.42 260.63 C 356.77 260.85 355.47 261.28 354.82 261.50 C 354.72 261.53 354.52 261.60 354.42 261.64 C 353.54 261.85 351.77 262.26 350.88 262.47 C 350.77 262.50 350.53 262.57 350.41 262.60 C 349.77 262.83 348.50 263.28 347.86 263.51 C 347.75 263.56 347.52 263.65 347.40 263.69 C 346.68 263.80 345.24 264.03 344.52 264.14 C 343.61 264.75 342.61 265.12 341.51 265.24 C 340.34 265.80 339.13 266.22 337.88 266.50 C 337.76 266.53 337.53 266.60 337.41 266.63 C 336.77 266.84 335.48 267.26 334.84 267.47 C 334.73 267.51 334.52 267.58 334.41 267.62 C 333.77 267.84 332.49 268.29 331.84 268.51 C 331.73 268.55 331.49 268.64 331.38 268.69 C 330.66 268.80 329.23 269.03 328.51 269.15 C 327.37 269.80 326.16 270.25 324.88 270.51 C 324.76 270.54 324.53 270.60 324.42 270.63 C 323.77 270.84 322.49 271.27 321.85 271.48 C 321.74 271.52 321.54 271.60 321.43 271.63 C 320.78 271.84 319.48 272.26 318.83 272.47 C 318.73 272.51 318.51 272.58 318.41 272.62 C 317.76 272.84 316.48 273.29 315.84 273.51 C 315.72 273.56 315.49 273.64 315.37 273.69 C 314.66 273.80 313.24 274.03 312.53 274.15 C 311.61 274.74 310.61 275.10 309.52 275.25 C 308.58 275.76 307.58 276.09 306.51 276.25 C 305.34 276.80 304.12 277.22 302.86 277.51 C 302.75 277.54 302.52 277.60 302.40 277.63 C 301.76 277.85 300.48 278.27 299.84 278.48 C 299.74 278.52 299.53 278.59 299.42 278.63 C 298.78 278.84 297.49 279.27 296.84 279.48 C 296.73 279.52 296.52 279.59 296.42 279.63 C 295.77 279.84 294.48 280.27 293.83 280.48 C 293.73 280.52 293.51 280.59 293.41 280.63 C 292.76 280.84 291.47 281.27 290.83 281.48 C 290.72 281.52 290.51 281.59 290.40 281.63 C 289.76 281.84 288.47 282.27 287.83 282.48 C 287.72 282.52 287.51 282.59 287.40 282.63 C 286.76 282.84 285.48 283.27 284.84 283.48 C 284.74 283.52 284.52 283.59 284.42 283.63 C 283.77 283.84 282.48 284.27 281.83 284.48 C 281.73 284.52 281.52 284.59 281.41 284.63 C 280.77 284.84 279.48 285.27 278.84 285.48 C 278.74 285.52 278.52 285.59 278.42 285.63 C 277.77 285.84 276.48 286.27 275.84 286.48 C 275.73 286.52 275.52 286.59 275.42 286.63 C 274.77 286.84 273.48 287.27 272.84 287.48 C 272.73 287.52 272.52 287.59 272.41 287.63 C 271.77 287.84 270.48 288.26 269.83 288.48 C 269.72 288.51 269.51 288.59 269.40 288.63 C 268.76 288.84 267.48 289.27 266.83 289.48 C 266.73 289.52 266.52 289.59 266.42 289.63 C 265.77 289.85 264.48 290.28 263.84 290.50 C 263.74 290.53 263.54 290.60 263.45 290.63 C 262.80 290.85 261.50 291.28 260.85 291.49 C 260.75 291.52 260.54 291.59 260.44 291.62 C 259.95 291.79 258.98 292.12 258.49 292.29 C 257.55 292.75 256.56 293.07 255.52 293.25 C 254.58 293.76 253.58 294.09 252.52 294.25 C 251.58 294.75 250.58 295.09 249.52 295.25 C 248.59 295.77 247.59 296.10 246.52 296.25 C 245.59 296.77 244.58 297.09 243.51 297.23 C 242.84 297.55 241.48 298.20 240.81 298.52 C 240.71 298.56 240.53 298.65 240.44 298.70 C 239.79 298.89 238.49 299.28 237.83 299.48 C 237.73 299.51 237.51 299.58 237.40 299.62 C 236.76 299.83 235.47 300.26 234.83 300.48 C 234.73 300.52 234.51 300.59 234.41 300.63 C 233.76 300.84 232.48 301.27 231.83 301.49 C 231.73 301.52 231.52 301.59 231.42 301.63 C 230.77 301.85 229.48 302.28 228.84 302.49 C 228.74 302.53 228.53 302.60 228.43 302.63 C 227.78 302.85 226.48 303.28 225.84 303.50 C 225.74 303.54 225.54 303.60 225.44 303.64 C 224.79 303.85 223.49 304.28 222.84 304.49 C 222.74 304.52 222.53 304.59 222.43 304.63 C 221.94 304.79 220.97 305.11 220.48 305.27 C 219.55 305.76 218.56 306.08 217.52 306.23 C 216.84 306.55 215.48 307.20 214.81 307.52 C 214.72 307.56 214.54 307.65 214.45 307.69 C 213.80 307.89 212.49 308.28 211.84 308.48 C 211.74 308.51 211.52 308.58 211.42 308.62 C 210.77 308.84 209.48 309.28 208.84 309.50 C 208.74 309.54 208.55 309.60 208.46 309.64 C 207.80 309.85 206.50 310.27 205.85 310.49 C 205.75 310.52 205.54 310.59 205.44 310.62 C 204.95 310.79 203.98 311.12 203.49 311.28 C 202.55 311.76 201.56 312.08 200.51 312.24 C 199.84 312.56 198.48 313.20 197.80 313.52 C 197.71 313.56 197.53 313.65 197.44 313.69 C 196.79 313.89 195.49 314.28 194.84 314.48 C 194.74 314.52 194.52 314.59 194.42 314.62 C 193.77 314.84 192.48 315.27 191.83 315.49 C 191.73 315.53 191.53 315.60 191.43 315.63 C 190.78 315.85 189.49 316.27 188.84 316.49 C 188.74 316.52 188.54 316.59 188.44 316.62 C 186.86 317.16 185.28 317.73 183.79 318.51 C 183.70 318.55 183.52 318.64 183.43 318.68 C 182.78 318.88 181.49 319.29 180.84 319.49 C 180.73 319.52 180.53 319.59 180.43 319.62 C 179.78 319.84 178.49 320.27 177.84 320.49 C 177.74 320.52 177.54 320.59 177.45 320.62 C 176.96 320.79 175.98 321.12 175.49 321.29 C 174.55 321.75 173.55 322.06 172.51 322.24 C 171.83 322.56 170.48 323.20 169.80 323.52 C 169.71 323.56 169.53 323.65 169.44 323.69 C 168.79 323.89 167.48 324.29 166.83 324.49 C 166.73 324.52 166.52 324.59 166.42 324.62 C 165.77 324.84 164.49 325.27 163.84 325.49 C 163.75 325.52 163.55 325.59 163.45 325.63 C 161.83 326.23 160.20 326.84 158.51 327.23 C 157.83 327.55 156.49 328.20 155.81 328.52 C 155.72 328.56 155.55 328.65 155.46 328.69 C 154.80 328.89 153.49 329.29 152.84 329.48 C 152.74 329.51 152.54 329.58 152.44 329.61 C 150.86 330.16 149.28 330.72 147.80 331.51 C 147.71 331.55 147.53 331.64 147.44 331.68 C 146.79 331.88 145.49 332.29 144.84 332.49 C 144.74 332.52 144.55 332.58 144.45 332.61 C 142.87 333.18 141.24 333.66 139.80 334.55 C 139.71 334.60 139.53 334.70 139.43 334.76 C 138.77 334.89 137.44 335.16 136.77 335.30 L 136.44 335.36 L 136.21 335.59 C 135.22 336.41 134.35 337.35 133.62 338.40 C 133.58 338.46 133.51 338.57 133.47 338.62 C 132.69 339.86 131.96 341.13 131.26 342.42 C 130.84 343.50 130.31 344.52 129.65 345.48 C 129.62 345.53 129.57 345.62 129.54 345.66 C 128.69 346.86 127.93 348.13 127.30 349.46 C 126.89 350.43 126.32 351.29 125.59 352.04 C 123.54 353.04 125.73 355.17 126.85 353.30 C 127.38 353.23 128.44 353.09 128.97 353.02 C 129.44 352.79 130.37 352.32 130.84 352.09 C 131.37 352.08 132.45 352.04 132.98 352.02 C 133.45 351.79 134.38 351.33 134.85 351.10 C 135.38 351.08 136.44 351.04 136.97 351.02 C 137.45 350.81 138.39 350.38 138.86 350.17 C 139.52 350.08 140.83 349.90 141.49 349.82 C 142.81 348.82 144.53 348.94 146.07 348.55 C 146.21 348.48 146.50 348.33 146.65 348.26 C 147.36 348.16 148.79 347.98 149.50 347.88 C 150.63 346.46 152.51 346.99 154.05 347.06 C 154.46 346.79 155.27 346.27 155.67 346.01 C 156.38 345.99 157.80 345.96 158.51 345.94 C 159.47 344.65 161.13 345.04 162.49 344.88 C 163.60 343.50 165.45 343.99 166.96 344.03 C 167.43 343.82 168.37 343.39 168.83 343.17 C 169.49 343.08 170.82 342.91 171.48 342.82 C 172.73 341.58 174.50 341.92 176.06 342.05 C 176.46 341.79 177.27 341.26 177.68 341.00 C 178.38 340.99 179.79 340.96 180.50 340.94 C 181.57 339.47 183.47 340.00 184.98 340.04 C 185.45 339.81 186.38 339.35 186.84 339.12 C 187.65 339.10 189.26 339.06 190.07 339.04 C 190.47 338.76 191.27 338.22 191.68 337.95 C 192.52 337.98 194.21 338.04 195.06 338.07 C 195.47 337.80 196.28 337.27 196.68 337.01 C 197.39 336.99 198.80 336.97 199.51 336.96 C 200.50 335.39 202.49 336.07 203.99 336.04 C 204.45 335.81 205.38 335.35 205.84 335.12 C 206.65 335.10 208.26 335.06 209.06 335.04 C 209.47 334.78 210.28 334.26 210.68 334.00 C 211.39 333.99 212.81 333.97 213.52 333.96 C 214.67 332.33 216.84 333.18 218.49 332.93 C 219.68 331.35 221.84 332.19 223.50 331.95 C 224.65 330.33 226.84 331.19 228.49 330.94 C 229.86 329.28 232.23 330.06 234.07 330.06 C 234.47 329.79 235.28 329.24 235.68 328.97 C 236.51 328.99 238.16 329.03 238.98 329.06 C 239.44 328.82 240.37 328.35 240.83 328.12 C 241.65 328.09 243.28 328.05 244.10 328.03 C 245.12 328.21 246.04 327.96 246.87 327.29 C 247.53 327.17 248.86 326.91 249.52 326.78 C 251.06 325.40 253.23 326.04 255.07 326.07 C 255.47 325.79 256.27 325.24 256.66 324.96 C 257.50 324.98 259.18 325.04 260.01 325.06 C 260.47 324.82 261.39 324.34 261.85 324.10 C 263.22 323.94 264.60 323.91 265.99 324.03 C 266.45 323.80 267.37 323.33 267.84 323.10 C 269.21 322.94 270.58 322.93 271.96 323.05 C 272.42 322.82 273.34 322.36 273.80 322.13 C 275.03 322.03 276.26 321.95 277.50 321.90 C 278.89 320.27 281.23 321.11 283.07 321.07 C 284.11 321.24 285.05 320.97 285.87 320.26 C 286.65 320.20 288.22 320.08 289.01 320.02 C 289.47 319.79 290.40 319.33 290.87 319.10 C 292.24 318.95 293.61 318.93 294.99 319.05 C 295.45 318.81 296.36 318.34 296.82 318.10 C 298.20 317.92 299.60 317.90 301.00 318.03 C 301.46 317.80 302.39 317.34 302.85 317.11 C 304.26 316.93 305.67 316.91 307.10 317.05 C 308.14 317.22 309.07 316.95 309.89 316.24 C 310.68 316.20 312.27 316.10 313.06 316.06 C 314.09 316.20 315.02 315.94 315.85 315.28 C 317.20 314.93 318.58 314.85 319.99 315.02 C 320.45 314.79 321.38 314.33 321.84 314.10 C 323.22 313.93 324.61 313.91 326.00 314.03 C 326.46 313.80 327.39 313.35 327.86 313.13 C 329.56 312.89 331.28 312.91 333.00 313.04 C 333.46 312.81 334.37 312.34 334.83 312.10 C 336.25 311.93 337.67 311.91 339.10 312.05 C 340.14 312.23 341.07 311.96 341.88 311.24 C 343.23 310.94 344.60 310.87 345.99 311.03 C 346.45 310.80 347.38 310.35 347.84 310.12 C 349.27 309.90 350.71 309.88 352.16 310.06 C 353.43 310.34 354.66 309.87 355.81 309.37 C 357.30 308.87 359.28 309.44 360.37 308.03 C 362.41 307.98 364.46 308.02 366.51 307.98 C 368.66 305.89 372.27 307.36 375.02 307.07 C 375.48 306.83 376.40 306.36 376.85 306.12 C 378.92 305.86 381.01 305.93 383.09 306.09 C 384.12 306.24 385.04 305.97 385.86 305.26 C 387.58 304.80 389.38 304.91 391.14 305.07 C 392.43 305.37 393.68 304.87 394.83 304.33 C 396.55 303.81 398.38 303.89 400.15 304.06 C 401.34 304.38 402.23 304.05 402.80 303.05 C 404.92 302.99 407.05 302.93 409.18 303.08 C 410.47 303.33 411.71 302.86 412.87 302.32 C 414.54 301.79 416.34 301.92 418.08 302.06 C 419.12 302.24 420.06 301.97 420.88 301.26 C 423.29 300.79 425.76 300.96 428.20 300.97 C 429.94 301.07 431.67 300.81 433.39 300.53 L 434.53 301.33 C 434.58 301.38 434.67 301.47 434.71 301.52 C 435.31 302.48 435.83 303.49 436.28 304.55 C 436.59 305.00 437.22 305.90 437.54 306.36 C 437.57 306.40 437.63 306.50 437.66 306.55 C 438.61 308.11 439.50 309.70 440.43 311.27 L 440.54 311.46 L 440.65 311.65 L 441.57 313.27 C 441.61 313.34 441.69 313.48 441.73 313.55 C 442.26 314.54 442.78 315.54 443.29 316.55 C 443.60 317.00 444.22 317.90 444.53 318.35 C 444.57 318.40 444.63 318.50 444.67 318.55 C 445.60 320.11 446.49 321.71 447.43 323.27 L 447.54 323.46 L 447.65 323.64 L 448.56 325.26 C 448.61 325.33 448.70 325.49 448.74 325.57 C 449.27 326.56 449.78 327.57 450.28 328.59 C 450.60 329.02 451.23 329.88 451.54 330.30 C 451.57 330.35 451.63 330.44 451.66 330.49 C 452.62 332.09 453.42 333.79 454.51 335.33 C 454.54 335.38 454.61 335.49 454.65 335.54 C 455.27 336.49 455.82 337.49 456.30 338.53 C 456.59 338.96 457.17 339.84 457.46 340.27 L 457.57 340.44 L 457.67 340.62 L 458.57 342.28 C 458.60 342.35 458.67 342.48 458.71 342.55 C 459.56 344.18 460.47 345.78 461.50 347.31 C 461.55 347.38 461.63 347.52 461.68 347.59 C 462.27 348.54 462.82 349.53 463.31 350.55 C 463.60 350.98 464.18 351.85 464.46 352.28 L 464.56 352.43 L 464.66 352.62 L 465.55 354.25 C 465.59 354.33 465.68 354.49 465.72 354.57 C 466.56 356.21 467.47 357.81 468.53 359.33 C 468.55 359.37 468.61 359.46 468.63 359.50 C 469.60 361.07 470.46 362.70 471.43 364.28 L 471.54 364.46 L 471.65 364.64 L 472.57 366.28 C 472.60 366.34 472.67 366.47 472.70 366.53 C 473.43 367.99 474.16 369.48 475.30 370.69 L 474.49 370.72 C 415.33 370.97 356.15 370.79 296.99 370.83 C 289.16 370.46 281.95 377.23 281.78 385.05 C 281.43 396.36 281.73 407.69 281.64 419.01 C 281.40 424.80 284.21 430.78 289.41 433.60 C 293.82 436.15 299.09 435.59 303.97 435.61 C 372.66 435.58 441.34 435.61 510.02 435.59 C 511.53 435.53 512.90 436.19 514.13 437.02 C 514.83 438.52 515.55 440.00 516.53 441.36 C 516.55 441.40 516.61 441.49 516.64 441.53 C 517.59 443.13 518.49 444.75 519.50 446.32 C 519.54 446.39 519.63 446.53 519.67 446.60 C 520.26 447.54 520.81 448.52 521.32 449.53 C 521.61 449.97 522.18 450.84 522.46 451.28 L 522.56 451.44 L 522.66 451.62 L 523.55 453.26 C 523.59 453.34 523.68 453.49 523.72 453.57 C 524.70 455.12 525.56 456.75 525.86 458.59 C 518.93 458.00 511.97 458.43 505.03 458.32 C 436.01 458.31 366.99 458.32 297.97 458.30 C 292.34 458.09 286.63 460.94 283.80 465.88 C 281.43 469.82 281.64 474.60 281.64 479.04 C 281.76 488.34 281.44 497.65 281.76 506.95 C 281.90 512.39 285.27 517.44 290.06 519.95 C 294.58 522.52 299.96 521.90 304.96 521.93 C 391.03 521.91 477.11 521.91 563.19 521.93 L 563.89 521.94 L 564.60 523.30 C 564.63 523.34 564.68 523.44 564.71 523.49 C 565.55 524.51 565.97 525.67 565.97 526.97 C 566.20 527.43 566.65 528.37 566.87 528.84 C 566.70 531.64 568.00 535.15 566.07 537.51 C 566.04 538.05 565.98 539.12 565.95 539.66 C 565.65 540.08 565.04 540.91 564.73 541.33 C 561.96 545.54 557.04 548.10 552.01 547.99 C 464.86 548.05 377.70 547.93 290.55 548.04 C 207.06 547.96 123.56 548.01 40.06 548.01 C 37.90 547.81 35.42 548.62 33.50 547.31 C 33.00 547.14 32.01 546.81 31.51 546.64 C 31.46 546.62 31.35 546.57 31.29 546.54 C 30.86 546.23 29.99 545.60 29.56 545.29 C 27.71 544.66 26.37 543.30 25.42 541.64 C 25.40 541.60 25.35 541.52 25.32 541.48 C 24.73 540.49 24.18 539.49 23.65 538.48 C 22.80 537.07 22.79 535.41 22.96 533.84 C 23.07 532.60 23.07 531.37 22.97 530.15 C 23.03 529.25 23.14 527.46 23.20 526.57 C 23.26 526.47 23.37 526.27 23.43 526.17 L 24.32 524.57 C 24.36 524.49 24.45 524.32 24.49 524.23 L 25.24 522.54 C 25.30 522.47 25.41 522.34 25.46 522.27 C 25.78 521.85 26.43 521.02 26.76 520.61 C 27.17 519.54 27.68 518.53 28.31 517.59 C 28.35 517.52 28.43 517.39 28.47 517.33 C 29.53 515.81 30.44 514.20 31.28 512.57 C 31.32 512.49 31.40 512.34 31.44 512.27 L 32.33 510.60 L 32.43 510.43 L 32.53 510.27 C 32.82 509.84 33.42 508.97 33.72 508.54 C 34.17 507.49 34.71 506.50 35.32 505.55 C 35.36 505.50 35.42 505.40 35.45 505.35 C 36.51 503.82 37.40 502.19 38.33 500.59 C 38.36 500.53 38.43 500.42 38.46 500.36 C 39.26 499.12 40.05 497.88 40.75 496.58 C 41.16 495.49 41.69 494.47 42.34 493.51 C 42.36 493.47 42.42 493.39 42.45 493.35 C 42.76 492.90 43.40 492.01 43.72 491.56 C 44.18 490.52 44.72 489.53 45.33 488.58 C 45.36 488.52 45.44 488.40 45.48 488.34 C 46.51 486.80 47.42 485.20 48.28 483.57 C 48.32 483.49 48.40 483.34 48.44 483.27 L 49.35 481.65 L 49.46 481.46 L 49.57 481.27 C 50.52 479.70 51.41 478.10 52.34 476.53 C 52.37 476.49 52.43 476.39 52.47 476.34 C 53.52 474.80 54.45 473.18 55.29 471.53 C 55.33 471.47 55.39 471.34 55.43 471.28 L 56.33 469.61 L 56.43 469.43 L 56.53 469.28 C 56.82 468.84 57.40 467.97 57.69 467.53 C 58.19 466.51 58.74 465.52 59.34 464.57 C 59.38 464.51 59.45 464.39 59.49 464.34 C 60.52 462.80 61.43 461.20 62.28 459.57 C 62.32 459.49 62.40 459.35 62.44 459.27 L 63.33 457.61 L 63.43 457.43 L 63.53 457.28 C 63.83 456.84 64.42 455.97 64.71 455.54 C 65.17 454.50 65.71 453.51 66.33 452.56 C 66.36 452.51 66.43 452.40 66.47 452.34 C 67.54 450.81 68.45 449.17 69.30 447.51 C 69.33 447.47 69.38 447.37 69.40 447.33 L 70.35 445.64 L 70.46 445.46 L 70.56 445.28 C 71.55 443.72 72.37 442.07 73.36 440.52 C 73.39 440.47 73.46 440.38 73.49 440.33 C 74.57 438.80 75.41 437.12 76.35 435.51 C 76.37 435.47 76.43 435.38 76.45 435.34 C 77.27 434.11 78.06 432.88 78.75 431.58 C 79.16 430.49 79.69 429.47 80.34 428.52 C 80.36 428.47 80.42 428.39 80.45 428.34 C 80.77 427.89 81.40 427.00 81.71 426.55 C 82.22 425.54 82.74 424.54 83.28 423.56 C 83.32 423.49 83.40 423.34 83.44 423.27 L 84.33 421.64 L 84.44 421.45 L 84.56 421.26 C 84.99 420.59 85.85 419.23 86.27 418.56 C 86.31 418.48 86.40 418.34 86.44 418.26 L 87.34 416.61 L 87.43 416.43 L 87.53 416.28 C 87.82 415.84 88.39 414.96 88.68 414.52 C 89.20 413.53 89.75 412.55 90.33 411.60 C 90.37 411.53 90.46 411.39 90.51 411.31 C 91.51 409.76 92.42 408.15 93.34 406.56 C 93.37 406.50 93.45 406.38 93.48 406.32 C 94.28 405.10 95.06 403.87 95.74 402.58 C 96.16 401.51 96.69 400.50 97.32 399.54 C 97.36 399.49 97.43 399.38 97.46 399.33 C 97.78 398.89 98.41 398.00 98.73 397.55 C 99.18 396.51 99.71 395.51 100.33 394.56 C 100.37 394.51 100.44 394.39 100.48 394.33 C 101.58 392.81 102.40 391.11 103.34 389.49 C 103.36 389.46 103.41 389.39 103.43 389.36 C 104.26 388.13 105.07 386.89 105.74 385.58 C 106.16 384.50 106.70 383.49 107.35 382.54 C 107.38 382.49 107.44 382.39 107.47 382.34 C 108.56 380.83 109.38 379.15 110.32 377.56 C 110.35 377.51 110.42 377.40 110.45 377.35 C 111.28 376.12 112.07 374.88 112.74 373.57 C 113.16 372.51 113.69 371.52 114.33 370.58 C 114.37 370.52 114.46 370.38 114.50 370.32 C 115.54 368.76 116.42 367.11 117.37 365.51 C 117.39 365.47 117.44 365.39 117.46 365.35 C 118.26 364.11 119.05 362.88 119.74 361.59 C 120.14 360.51 120.67 359.51 121.33 358.59 C 121.38 358.53 121.47 358.40 121.52 358.33 C 122.30 357.28 122.88 356.13 123.26 354.88 C 122.42 355.02 120.74 355.31 119.90 355.46 C 119.77 355.49 119.51 355.56 119.38 355.60 C 118.74 355.82 117.47 356.27 116.84 356.49 C 116.73 356.53 116.53 356.60 116.43 356.64 C 115.55 356.85 113.79 357.26 112.91 357.46 C 112.77 357.56 112.49 357.76 112.35 357.86 C 111.75 357.87 110.56 357.89 109.96 357.90 C 109.54 358.15 108.70 358.66 108.27 358.91 C 107.67 359.05 106.46 359.35 105.86 359.49 C 105.74 359.52 105.51 359.59 105.40 359.62 C 104.52 359.83 102.76 360.26 101.88 360.47 C 101.76 360.51 101.52 360.57 101.39 360.61 C 100.75 360.83 99.47 361.27 98.82 361.49 C 98.72 361.53 98.52 361.60 98.42 361.64 C 97.54 361.85 95.78 362.26 94.91 362.46 C 94.77 362.55 94.48 362.74 94.34 362.83 C 93.77 362.86 92.62 362.92 92.04 362.95 C 91.55 363.15 90.58 363.54 90.10 363.73 C 89.53 363.94 88.39 364.34 87.82 364.55 C 87.73 364.58 87.55 364.65 87.46 364.68 C 86.58 364.87 84.80 365.26 83.91 365.46 C 83.77 365.55 83.49 365.75 83.35 365.85 C 82.77 365.87 81.63 365.92 81.06 365.95 C 80.57 366.14 79.59 366.52 79.10 366.71 C 78.54 366.92 77.42 367.36 76.86 367.58 C 76.76 367.61 76.56 367.69 76.46 367.73 C 75.72 367.83 74.25 368.04 73.52 368.14 C 72.38 368.77 71.18 369.23 69.91 369.53 C 69.78 369.57 69.51 369.65 69.38 369.69 C 68.66 369.81 67.23 370.03 66.51 370.15 C 65.38 370.77 64.18 371.23 62.91 371.51 C 62.77 371.59 62.49 371.73 62.35 371.80 C 61.78 371.84 60.63 371.91 60.05 371.95 C 59.56 372.14 58.58 372.51 58.09 372.70 C 57.54 372.92 56.43 373.37 55.88 373.60 C 55.77 373.65 55.54 373.74 55.43 373.79 C 54.84 373.83 53.65 373.91 53.06 373.95 C 52.57 374.14 51.59 374.51 51.10 374.69 C 50.54 374.92 49.44 375.37 48.89 375.60 C 48.77 375.65 48.55 375.74 48.43 375.79 C 47.84 375.83 46.65 375.91 46.05 375.95 C 45.56 376.15 44.59 376.54 44.10 376.73 C 43.53 376.93 42.40 377.34 41.83 377.55 C 41.74 377.58 41.56 377.64 41.47 377.68 C 40.81 377.88 39.50 378.29 38.85 378.49 C 38.74 378.52 38.54 378.59 38.43 378.63 C 37.78 378.84 36.48 379.28 35.82 379.49 C 35.72 379.53 35.52 379.60 35.41 379.64 C 34.53 379.85 32.75 380.26 31.87 380.47 C 31.75 380.50 31.52 380.56 31.40 380.59 C 30.77 380.82 29.50 381.28 28.87 381.51 C 28.75 381.56 28.52 381.65 28.41 381.70 C 27.68 381.81 26.23 382.03 25.51 382.15 C 24.37 382.79 23.16 383.24 21.87 383.50 C 21.76 383.53 21.53 383.59 21.41 383.62 C 20.77 383.84 19.49 384.29 18.85 384.51 C 18.74 384.55 18.51 384.64 18.39 384.68 C 17.68 384.81 16.25 385.05 15.53 385.18 C 14.36 385.74 13.14 386.19 11.89 386.53 C 11.76 386.57 11.51 386.65 11.39 386.69 C 10.66 386.80 9.22 387.02 8.50 387.13 C 7.78 387.40 6.35 387.94 5.63 388.20 C 6.28 386.75 7.62 385.83 9.16 385.57 L 9.42 385.49 L 9.64 385.35 L 11.22 384.44 C 11.31 384.40 11.47 384.30 11.55 384.26 L 13.24 383.49 C 13.32 383.45 13.48 383.37 13.56 383.33 L 15.23 382.50 C 15.31 382.46 15.47 382.38 15.55 382.34 C 17.90 381.69 19.98 380.42 22.21 379.49 C 22.30 379.44 22.49 379.35 22.58 379.31 L 24.22 378.48 C 24.30 378.45 24.45 378.37 24.52 378.33 C 26.13 377.82 27.71 377.21 29.23 376.49 C 29.32 376.44 29.50 376.36 29.59 376.31 L 31.23 375.47 C 31.31 375.43 31.46 375.35 31.54 375.31 L 33.22 374.49 C 33.30 374.45 33.46 374.37 33.54 374.33 C 35.15 373.83 36.70 373.19 38.23 372.49 C 38.31 372.45 38.49 372.36 38.58 372.32 L 40.22 371.48 C 40.30 371.44 40.45 371.36 40.53 371.33 C 42.12 370.83 43.69 370.27 45.18 369.52 C 45.27 369.48 45.47 369.38 45.56 369.34 C 47.90 368.70 49.99 367.44 52.20 366.49 C 52.28 366.45 52.45 366.37 52.54 366.33 C 54.13 365.84 55.70 365.24 57.20 364.51 C 57.29 364.47 57.46 364.39 57.55 364.35 C 59.15 363.83 60.71 363.21 62.23 362.49 C 62.31 362.45 62.48 362.36 62.56 362.32 L 64.22 361.49 C 64.30 361.44 64.46 361.36 64.54 361.32 C 66.13 360.81 67.72 360.26 69.21 359.50 C 69.30 359.45 69.49 359.37 69.58 359.32 C 70.23 359.12 71.53 358.71 72.18 358.51 C 72.28 358.48 72.47 358.42 72.57 358.39 C 74.15 357.84 75.72 357.26 77.21 356.50 C 77.29 356.46 77.45 356.38 77.54 356.34 C 79.13 355.81 80.73 355.28 82.21 354.50 C 82.30 354.45 82.48 354.36 82.57 354.32 C 83.22 354.12 84.52 353.71 85.17 353.51 C 85.27 353.48 85.46 353.42 85.55 353.39 C 87.13 352.85 88.70 352.24 90.20 351.51 C 90.29 351.46 90.46 351.38 90.55 351.34 C 92.14 350.82 93.72 350.26 95.21 349.49 C 95.30 349.45 95.48 349.36 95.57 349.32 C 96.22 349.12 97.51 348.71 98.16 348.51 C 98.26 348.48 98.47 348.41 98.57 348.38 C 99.05 348.21 100.02 347.88 100.51 347.72 C 101.45 347.24 102.44 346.93 103.49 346.78 C 104.17 346.45 105.52 345.80 106.19 345.47 C 106.28 345.43 106.46 345.34 106.54 345.30 C 107.20 345.10 108.51 344.71 109.17 344.51 C 109.27 344.48 109.47 344.42 109.57 344.38 C 110.06 344.22 111.03 343.89 111.51 343.72 C 112.45 343.24 113.44 342.92 114.48 342.77 C 115.16 342.45 116.52 341.80 117.20 341.48 C 117.30 341.44 117.48 341.35 117.57 341.30 C 118.22 341.11 119.52 340.72 120.17 340.52 C 120.28 340.49 120.49 340.42 120.60 340.38 C 121.24 340.17 122.52 339.73 123.16 339.52 C 123.27 339.48 123.48 339.41 123.59 339.37 C 124.23 339.16 125.52 338.73 126.16 338.52 C 126.26 338.48 126.47 338.41 126.57 338.37 C 127.22 338.16 128.51 337.73 129.15 337.51 C 129.26 337.47 129.47 337.40 129.58 337.36 C 130.26 337.15 131.63 336.72 132.31 336.51 C 132.38 336.48 132.52 336.41 132.60 336.37 C 135.10 335.30 136.07 332.73 137.36 330.55 C 137.39 330.50 137.45 330.39 137.48 330.34 C 138.50 328.79 139.40 327.18 140.33 325.58 C 140.37 325.52 140.45 325.40 140.49 325.33 C 141.49 323.79 142.41 322.19 143.33 320.59 C 143.36 320.53 143.44 320.40 143.48 320.34 C 144.28 319.11 145.06 317.87 145.74 316.58 C 146.17 315.53 146.69 314.54 147.32 313.60 C 147.36 313.53 147.46 313.39 147.50 313.32 C 148.51 311.78 149.39 310.17 150.34 308.60 C 150.38 308.54 150.45 308.42 150.48 308.36 C 151.12 307.38 151.72 306.39 152.29 305.37 C 152.90 304.06 153.56 302.77 154.33 301.55 C 154.36 301.50 154.43 301.39 154.47 301.34 C 154.78 300.89 155.41 300.01 155.73 299.56 C 156.17 298.52 156.71 297.52 157.32 296.57 C 157.36 296.52 157.44 296.40 157.48 296.34 C 158.53 294.81 159.43 293.19 160.28 291.56 C 160.32 291.48 160.40 291.34 160.44 291.27 L 161.35 289.64 L 161.46 289.46 L 161.57 289.28 C 162.53 287.72 163.41 286.10 164.34 284.52 C 164.37 284.48 164.43 284.38 164.46 284.33 C 165.27 283.11 166.07 281.88 166.77 280.58 C 167.13 279.47 167.66 278.45 168.35 277.51 C 168.38 277.47 168.44 277.38 168.47 277.33 C 169.55 275.83 170.42 274.19 171.28 272.57 C 171.32 272.49 171.40 272.34 171.44 272.27 L 172.33 270.61 L 172.43 270.43 L 172.53 270.28 C 172.83 269.84 173.42 268.98 173.71 268.55 C 174.17 267.51 174.70 266.52 175.32 265.58 C 175.36 265.51 175.44 265.39 175.48 265.33 C 176.28 264.11 177.05 262.88 177.74 261.59 C 178.15 260.50 178.69 259.48 179.34 258.51 C 179.36 258.47 179.42 258.39 179.45 258.35 C 179.77 257.91 180.42 257.02 180.75 256.58 C 181.16 255.51 181.69 254.50 182.32 253.55 C 182.35 253.50 182.42 253.39 182.45 253.34 C 183.28 252.12 184.06 250.88 184.76 249.59 C 185.14 248.49 185.67 247.47 186.35 246.53 C 186.38 246.48 186.45 246.38 186.48 246.32 C 187.55 244.81 188.42 243.16 189.30 241.53 C 189.33 241.47 189.40 241.34 189.44 241.28 L 190.36 239.65 L 190.47 239.46 L 190.57 239.28 C 191.50 237.69 192.39 236.09 193.35 234.53 C 193.38 234.49 193.43 234.40 193.46 234.36 C 193.77 233.91 194.40 233.00 194.71 232.54 C 195.18 231.52 195.72 230.53 196.33 229.58 C 196.36 229.52 196.44 229.40 196.48 229.34 C 197.52 227.80 198.43 226.19 199.29 224.54 C 199.32 224.47 199.39 224.35 199.42 224.29 L 200.34 222.62 L 200.44 222.44 L 200.54 222.28 C 200.83 221.84 201.41 220.97 201.70 220.54 C 202.18 219.52 202.72 218.54 203.32 217.58 C 203.36 217.52 203.43 217.40 203.47 217.34 C 204.27 216.12 205.05 214.87 205.74 213.58 C 206.16 212.49 206.69 211.47 207.33 210.51 C 207.37 210.47 207.43 210.37 207.46 210.33 C 207.77 209.89 208.40 209.01 208.72 208.57 C 209.17 207.53 209.70 206.53 210.33 205.58 C 210.36 205.52 210.44 205.40 210.48 205.34 C 211.53 203.80 212.44 202.18 213.29 200.53 C 213.33 200.47 213.39 200.34 213.43 200.28 L 214.33 198.60 L 214.42 198.43 L 214.52 198.28 C 214.82 197.84 215.42 196.98 215.72 196.54 C 216.17 195.49 216.70 194.49 217.33 193.54 C 217.36 193.49 217.42 193.39 217.46 193.34 C 218.29 192.13 219.08 190.88 219.74 189.57 C 220.15 188.49 220.69 187.48 221.34 186.53 C 221.37 186.48 221.43 186.38 221.47 186.33 C 221.78 185.89 222.41 185.00 222.72 184.55 C 223.18 183.52 223.71 182.53 224.33 181.58 C 224.37 181.52 224.44 181.40 224.47 181.34 C 225.49 179.79 226.46 178.21 227.32 176.57 C 227.36 176.50 227.43 176.36 227.47 176.28 L 228.24 174.54 C 228.29 174.47 228.40 174.33 228.45 174.26 C 228.78 173.84 229.43 173.00 229.75 172.58 C 230.22 171.56 230.73 170.55 231.27 169.56 C 231.31 169.48 231.39 169.34 231.43 169.27 L 232.33 167.62 L 232.43 167.44 L 232.54 167.28 C 232.83 166.84 233.41 165.97 233.70 165.54 C 234.18 164.49 234.72 163.48 235.33 162.51 C 235.36 162.47 235.41 162.39 235.44 162.35 C 235.76 161.90 236.40 161.01 236.72 160.57 C 237.21 159.55 237.73 158.55 238.27 157.56 C 238.31 157.49 238.39 157.34 238.42 157.27 L 239.35 155.64 L 239.46 155.46 L 239.56 155.27 C 240.50 153.70 241.41 152.12 242.35 150.55 C 242.38 150.50 242.45 150.39 242.48 150.34 C 243.28 149.11 244.06 147.87 244.76 146.59 C 245.15 145.49 245.68 144.46 246.33 143.50 C 246.35 143.46 246.41 143.38 246.43 143.34 C 246.75 142.90 247.39 142.02 247.72 141.58 C 248.24 140.56 248.77 139.55 249.31 138.55 C 249.35 138.48 249.41 138.35 249.44 138.29 L 250.27 136.55 C 250.32 136.48 250.42 136.34 250.47 136.28 C 251.61 134.84 252.36 133.14 253.34 131.60 C 253.38 131.54 253.45 131.41 253.49 131.34 C 254.13 130.37 254.73 129.38 255.29 128.36 C 255.89 127.05 256.56 125.76 257.34 124.53 C 257.37 124.48 257.43 124.39 257.46 124.35 C 257.77 123.90 258.40 123.00 258.72 122.55 C 259.17 121.52 259.71 120.53 260.33 119.59 C 260.37 119.52 260.46 119.38 260.50 119.31 C 261.53 117.78 262.43 116.16 263.29 114.53 C 263.33 114.47 263.40 114.35 263.43 114.29 L 264.36 112.65 L 264.47 112.46 L 264.57 112.28 C 265.50 110.69 266.39 109.09 267.35 107.53 C 267.38 107.48 267.44 107.39 267.46 107.35 C 267.78 106.90 268.41 106.01 268.73 105.56 C 269.16 104.49 269.70 103.48 270.35 102.53 C 270.38 102.48 270.44 102.39 270.47 102.35 C 271.13 101.38 271.74 100.39 272.30 99.36 C 272.90 98.04 273.54 96.73 274.34 95.52 C 274.38 95.47 274.45 95.37 274.48 95.32 C 274.79 94.87 275.41 93.99 275.73 93.55 C 276.17 92.50 276.71 91.50 277.35 90.55 C 277.38 90.50 277.45 90.39 277.49 90.34 C 278.30 89.12 279.07 87.86 279.70 86.54 C 280.49 85.08 281.60 83.82 282.23 82.27 C 282.99 81.01 284.25 80.23 285.60 79.73 C 286.01 79.41 286.84 78.78 287.26 78.47 C 287.32 78.42 287.43 78.33 287.49 78.29 C 288.15 78.09 289.46 77.69 290.11 77.49 C 290.24 77.43 290.50 77.31 290.63 77.25 Z" />
</g>
</svg>
